<svg width="133" height="96" viewBox="0 0 133 96" fill="none" xmlns="http://www.w3.org/2000/svg">
<path d="M1.55693 0.971191H4.98961L8.16484 4.14642L7.83873 4.46394V5.1419L9.88118 7.38172H10.1129V6.71235L8.68832 3.53712L6.70595 1.93234V1.58907L7.25518 0.971191H18.6603L19.5184 1.58907L19.2867 1.93234V3.18527L20.1449 4.14642L19.8274 4.46394V8.94359L20.1449 10.514L19.2867 10.8659L20.7113 12.4363L20.4195 12.7796V15.9205L21.2777 16.8817L20.9859 17.2335V21.6788L21.887 22.64L21.5952 23.6011L21.887 24.5623L21.5952 24.8197H20.9859C20.9859 23.9616 20.7113 23.6011 20.1706 23.6011H19.8531V24.2104L21.887 26.476L21.5952 26.742V29.3165L22.4534 30.2777L22.2474 30.5952V33.1697L22.4534 34.8002L21.5952 35.6584L22.7366 37.2889L22.153 38.2587L23.0112 39.2112L22.728 40.816H21.5094V39.4687H19.4755V40.1381C22.153 41.185 23.5518 42.0432 23.5518 42.7297L23.2257 42.9958V43.3476L23.5518 44.6177L23.2257 44.9009V45.2527L23.5518 46.2139L23.2257 46.5314H22.9339L22.3246 45.862L21.8012 46.5314H21.5094C21.5094 46.0852 21.0374 45.862 20.0848 45.862C19.8155 45.6211 19.5999 45.3263 19.452 44.9965C19.3042 44.6668 19.2274 44.3097 19.2266 43.9483H18.6431V39.4687H19.2266V39.2112C18.2741 37.718 17.5103 36.9714 16.901 36.9714V35.0577H18.0338V34.7659L17.1756 33.8048H16.9182L16.3947 34.4141L16.6865 34.7659L16.3947 35.0577H15.7854C15.7854 34.4856 15.0388 33.5244 13.5456 32.1742C13.5456 31.2474 12.387 29.7542 10.1129 27.7032C8.25352 21.5358 6.82323 18.4521 5.82204 18.4521H5.61607L4.98961 19.7308V23.5754L5.59891 24.1847V23.5754H6.45708L7.06638 25.4891L8.42229 24.8197L8.654 25.1716V25.5148C8.654 25.9268 8.26782 26.1327 7.52121 26.1327V26.742C8.66258 26.742 9.23755 26.9737 9.23755 27.4371L7.56412 28.6557H6.70595C6.36268 28.6557 5.84778 27.6088 5.28139 25.5148C4.68067 25.5148 4.38031 25.1973 4.38031 24.5623L3.85683 23.6011V20.1084L3.27327 19.1472V15.9205H2.72404V11.1491L2.14049 10.1879V7.34739L1.55693 6.38624V1.93234H0.947632V1.58907L1.55693 0.971191ZM3.2132 14.7019V15.3112C3.53909 15.6425 3.78979 16.0401 3.94824 16.4769C4.10669 16.9138 4.16918 17.3796 4.13144 17.8428H4.3374L4.9467 17.2335V16.8817C4.62112 16.6131 4.353 16.2816 4.15837 15.9071C3.96374 15.5326 3.84659 15.1227 3.81392 14.7019H3.2132ZM28.9583 0.971191H45.418L46.0273 1.58907V4.16358L45.418 4.77288L45.7098 5.12473V6.08588L45.418 12.0931L45.7098 13.0542L44.8516 14.0068L45.1434 14.3586L44.8516 14.7105V15.9291L45.1434 17.4995L44.2337 18.4607L44.5598 18.8125L44.2337 19.1558V20.383L44.5598 22.0393L43.7016 22.8974L43.9333 23.2493L43.7016 23.6011V24.8197L43.9333 26.476L43.0752 27.4371L43.4013 27.7032L43.0752 28.0464V29.9687L43.4013 31.5392L42.5431 32.5003L42.7834 32.8436L42.5431 33.1354V33.8048L42.7834 35.3752L41.9681 36.3364L42.2513 37.9326L41.9681 38.2587H41.7193L41.1958 37.5893H40.904V38.2587L41.1958 38.5419V38.8937H40.904L41.1958 39.2112V39.4687L40.6208 40.4298V40.7817L41.7193 41.0992L41.4361 42.6954L41.7193 44.2659L40.6208 45.227H39.1619C38.668 44.9955 38.2469 44.6332 37.9443 44.1794C37.6418 43.7255 37.4693 43.1974 37.4456 42.6525H36.9221V43.2704H36.3128L35.7893 42.6525V41.4253H38.0549V41.1335L37.1967 40.1724L36.6732 40.816C36.6732 40.3869 36.3986 40.1724 35.8151 40.1724V39.8549L36.0468 39.503V39.2112L36.3386 39.503H36.9478V39.2112C36.9478 38.7135 36.1755 38.1643 34.6222 37.5893V36.036L32.0477 33.8219H31.7302V34.4312L32.0477 34.7831V35.0749H31.7302L32.0477 35.3924V35.6842L31.1895 36.9886L31.5071 37.3147V37.6065L31.1895 38.559L34.3648 42.0432L33.7555 42.7383H33.4637C33.0898 42.5895 32.7758 42.321 32.5709 41.9747C32.3659 41.6284 32.2815 41.2239 32.3309 40.8246H31.7216V41.4339H30.6146L28.0401 39.5116H27.7225V40.181L28.5807 41.4339L28.2889 41.7857C29.7993 42.0947 30.5545 42.498 30.5545 43.0043L30.031 43.9655H30.237L30.031 44.3088V44.6177L31.138 45.862V42.7297H31.9962L31.6787 44.3002H31.9962L33.129 43.9569V44.6177C33.129 45.0382 32.7514 45.2527 31.9962 45.2527L31.6787 45.5703V45.862L32.288 46.5314H33.4208V45.862H34.2789V46.2139L33.9872 46.5314V46.8232L34.8453 47.7844L34.5536 48.7455L34.8453 49.0888H36.3128V47.7929H37.171L36.9393 49.3634L38.0721 50.3245V50.0585L37.4627 49.0973L38.0721 48.4022H38.3638C38.8101 48.4022 39.222 49.2604 39.5052 50.9767H39.7884V49.7152H40.6466V50.0585L40.3205 52.2468L40.6208 53.1994L38.9045 54.1605H37.4456L36.9221 51.586H36.3128V52.5472L36.6303 52.899V53.1994C35.6606 53.474 35.18 53.7915 35.18 54.1605L36.0382 55.4735H35.8065L36.0382 55.731V56.0828C36.0382 56.4519 35.3946 56.7694 34.0901 57.0354V57.3873C34.6909 58.8976 36.1154 60.2707 38.381 61.4893L38.0892 61.8412V62.0986L38.6127 64.3728L38.0892 64.9821L38.9474 66.2865L38.0892 67.5394L38.381 67.8569L37.4799 68.8181L37.7717 69.1699V69.5046L37.4799 70.4572L38.381 71.4183L37.7717 72.0877H37.4799V71.4183L36.9564 70.7833H36.3128L35.7893 71.4183L36.021 72.3795L34.3648 73.9499H34.073V73.3406L33.4637 72.697H32.9402L32.082 73.3406H31.7645C31.7645 72.4825 31.5843 72.0877 31.241 72.0877H30.6575V71.4183H31.241L32.3738 70.1654V69.5046H31.7645L31.241 68.861V68.2517H31.5585L33.5066 70.1654L34.1159 69.5046H34.4077L34.9312 70.1654C34.9312 70.5773 34.6565 70.7833 34.073 70.7833V71.4183H34.5965C34.5965 70.9893 34.9912 70.7833 35.7893 70.7833V67.8998L35.18 66.9301C36.493 65.8488 37.1538 65.1194 37.1538 64.7504L36.9221 64.4071H36.6303L34.5965 66.3208C34.5965 67.5995 34.3133 68.2431 33.7383 68.2431H33.4465C33.4465 67.3849 33.2749 66.9301 32.923 66.9301C32.5712 66.9301 32.3137 66.5268 32.3137 65.7115H31.7044V64.3556H32.3137V61.7811L31.4556 62.3904H30.5974V61.7811C31.0436 61.7811 31.4556 61.455 31.7044 60.8199C31.7044 60.1763 32.0048 59.8588 32.5626 59.8588H32.8801V59.5069C32.5248 59.26 32.2304 58.9354 32.0193 58.5577C31.8081 58.18 31.6858 57.7592 31.6615 57.3272H31.138C29.5846 58.3161 28.2309 59.5883 27.1476 61.0774C28.1923 62.3923 28.8756 63.9571 29.1299 65.6171L28.8982 66.5783L29.1299 66.8357H29.4217V66.2264H30.237L30.031 67.4793L30.237 68.758L29.1299 70.0624H28.8982V69.5046L27.9971 70.4572L28.5807 71.1266L28.2889 71.4183V72.0791L29.1471 73.3321V73.9414L28.5979 74.6107H28.3061C28.3061 73.6267 27.734 72.348 26.5897 70.7747V70.1568L27.1647 69.2043V68.8524H26.5897L26.0663 69.496V70.7747L26.2636 72.0791L26.1092 72.9373L27.5337 74.5678L27.2076 74.8596C28.1602 75.1256 28.6408 75.4517 28.6408 75.8208L28.0572 76.4301H24.882V75.8208H25.4999V75.5118C24.7962 74.4219 24.2126 73.8813 23.7835 73.8813V72.0791H23.26V69.5046H24.3928V69.2128C24.3928 68.6636 24.0152 68.3547 23.26 68.2517V67.5823H23.7835V66.7242L22.9254 65.763H22.6422L22.153 67.5394L22.359 67.8569L21.5008 68.8181L22.359 70.1225C22.359 70.5344 21.9814 70.7404 21.2262 70.7404V71.0836L22.359 72.6541L21.8355 73.2977H20.3766L19.7673 72.6541V71.3754H19.2438L18.3856 72.3366L20.102 74.5764L19.7845 74.8682V75.2114L20.102 76.1726L19.7845 76.4386H18.0681C18.0946 75.8683 17.908 75.3085 17.5446 74.8682V74.5764H16.9182L16.3947 75.2114L16.9182 76.1726V76.4386H11.2199V74.5764H11.5117L12.9363 75.8293C12.9363 75.4947 13.5198 75.0827 14.6526 74.5764V73.907C15.3906 73.907 15.7596 73.7011 15.7596 73.2977C15.7596 72.8944 16.1372 72.6541 16.8924 72.6541V72.0791C15.7854 72.0791 15.2362 71.221 15.2362 69.5046H14.6526L13.5713 68.2088V66.6383L12.7131 65.6772H12.4814V66.2865H13.0049V67.2476L12.1897 68.5006C12.1897 69.6763 13.0478 70.543 14.7642 71.0751L15.0559 72.0362H14.7642L15.0559 72.328V72.6455L13.9232 73.8985H13.5713L12.4385 73.2892V72.6455H12.962V70.7318L12.1467 71.6844L12.4385 72.6455L11.5804 73.2892H11.2886L10.7651 72.6455V68.8181H10.1558V64.3556H9.63231V60.5282H9.01443V56.6922H8.42229V54.7699H8.93719V52.2468H9.28046L13.8802 57.3958L13.5713 58.3484L17.5532 61.1375H18.686V59.9189C18.2827 59.9189 18.0767 59.4812 18.0767 58.6144C17.2185 58.6144 16.2917 57.7563 15.2876 56.0399C13.7315 54.8557 12.8733 53.6914 12.7131 52.5472C12.4042 52.5472 11.855 51.689 11.0569 49.9727C10.4562 49.9727 10.1558 49.4235 10.1558 48.3164C9.80394 48.3164 9.63231 47.9131 9.63231 47.0978L8.42229 46.54V46.2225C8.77128 45.1526 9.15174 44.6177 9.56366 44.6177V43.3476C7.84732 43.3476 6.98915 42.3865 6.98915 40.4642L6.09665 39.4687V38.8594H6.70595V38.5075L6.12239 37.555V35.667H5.59891V31.8825H4.98961V29.308H6.70595C6.70595 30.3892 7.19511 30.9385 8.16484 30.9385V31.2303L6.70595 33.1354V33.8048C7.11787 34.9461 7.69285 35.5726 8.42229 35.667V36.3364C7.62419 36.3364 7.22085 36.5509 7.22085 36.9714C7.22085 37.3919 7.70143 37.6408 8.654 37.9326L8.42229 38.2587V39.4687L9.84685 41.391L9.55507 42.3521L12.9277 43.3133H13.5713V42.7297H13.8631L14.7213 43.6909L14.069 44.6177L14.3608 44.9009V45.2527L14.069 46.2139L14.3608 46.5314H14.6783L15.2619 45.862V44.6177H15.4936L16.9182 45.2527V45.5703L16.3947 46.5314L17.2529 47.7844L16.9611 48.1362L18.0939 49.0888V47.1922H18.9949V48.4108H22.9768L23.835 49.372V50.3331H23.3115V49.7238H22.4534V50.0671C23.4985 51.1846 24.1076 52.6403 24.1697 54.1691L28.4606 57.3958H29.5933C29.5933 56.9324 29.9709 56.7007 30.7261 56.7007V55.4735H29.4818V54.7699H32.3309V54.5124C31.6907 53.6763 31.2982 52.6772 31.1981 51.6289L30.297 51.0196H30.0911L30.297 52.5901L30.0911 52.9419H29.4818C29.1299 52.9419 28.9583 52.5043 28.9583 51.6289C28.5464 51.6289 28.349 52.0666 28.349 52.9419H27.7397C27.7012 51.9765 27.3068 51.0595 26.6327 50.3674V49.0973H26.1092L25.7831 50.0585L26.1092 51.0196L25.251 51.6289H24.9249L24.4014 51.0196V47.7929H24.9249V40.1724H25.5428V34.7659L26.1521 33.8048V33.1354H25.4999V32.8436L26.1092 31.8825V26.1327H26.6327V18.804L27.2076 17.8428V14.7019C27.9714 14.7019 28.5464 14.0583 28.924 12.7796V12.4363L28.3147 11.4752V9.26111L28.924 8.29996V6.06872L28.349 5.1419V1.6234L28.9583 0.971191ZM6.09665 21.0695H6.99773V21.6788L6.38843 22.2881H6.09665V21.0695ZM6.68021 43.3819H7.53838L7.00631 43.9912H6.70595L6.68021 43.3819ZM7.22943 47.1922H8.13909C8.13354 47.9928 8.42038 48.7679 8.94577 49.372L8.43087 50.0671L8.66258 50.3331V51.6375L8.13909 52.2554H7.81299V49.3634L7.22943 48.4022V47.1922ZM10.0871 15.3198V15.6716H10.3789L11.2371 15.3198L11.8206 15.9291V15.3198L11.2371 14.7105H10.7136L10.0871 15.3198ZM10.9882 32.4832H11.5117V33.1182L10.9968 33.8048H10.0871V33.4615L10.9882 32.4832ZM11.8035 10.1708V11.1491L12.9363 11.5009V11.1491L12.121 10.1879L11.8035 10.1708ZM14.378 65.9518L15.2876 66.9301V65.0164L14.378 65.9518ZM15.5108 51.6461V52.264H16.9182V51.6461H15.5108ZM16.9182 24.8197V25.5148L18.051 26.742V25.7809L17.1928 24.8197H16.9182ZM18.6345 52.9419V54.1605L19.4927 55.4735L19.261 56.4261L19.4927 56.6922H20.9172V56.0828H21.8183V56.6922L21.5265 57.0354V57.3873L21.8183 57.6533L21.209 58.3484V58.6144H22.153C22.153 58.2025 22.522 57.9966 23.26 57.9966V56.6922H22.6851V56.4261L23.26 55.4735V55.1217L22.4019 54.1605H22.153V54.5124L22.359 55.4735H21.5008C21.5008 55.0016 21.1232 54.7699 20.368 54.7699C20.368 54.2721 19.9904 53.9803 19.2352 53.9117V52.9419H18.6345ZM20.8743 66.2865L20.3508 66.8958V67.5394H20.6426L21.5008 66.6812V66.3294L20.8743 66.2865ZM23.2 59.3096V59.9189L24.6245 61.8412V62.4505L24.041 63.0598H23.7235V62.4505L22.8653 63.0598H21.1489V63.7549C23.4374 64.1668 24.5816 65.025 24.5816 66.3294H24.8133C24.8133 65.0507 25.2253 64.4157 26.0405 64.4157V62.4505H25.4999V59.3096L24.882 58.6144H23.7492L23.2 59.3096ZM22.625 75.2114H22.9082L23.5261 75.8293L22.9082 76.4386H22.625V75.2114ZM24.3413 52.2468H25.1995V52.9419H24.3413V52.2468ZM25.4827 52.9419H26.2894L25.7659 53.5513H25.4999L25.4827 52.9419ZM26.2894 38.8937V39.4687H27.1476V38.8594L26.2894 38.8937ZM26.6155 55.4735H27.7225V56.0828H26.6327L26.6155 55.4735ZM28.9411 17.2335L30.0739 18.4521V18.1947L29.2157 17.2335H28.9411ZM29.4646 23.6011L28.9411 24.8197V25.1716H29.4646L29.1728 26.742L30.031 27.4371V23.6011H29.4646ZM29.4646 63.7549H30.2799V64.3556H29.4646V63.7549ZM30.5974 73.907H31.7044V74.2589L30.8463 75.2114H30.5545L30.5974 73.907ZM31.4556 31.8567V32.4746H32.3137V31.8567H31.4556ZM32.8801 36.9457H33.7383L34.8711 39.5202L34.3476 40.1895H34.0558L32.923 37.615L32.8801 36.9457ZM32.8801 75.8036H34.0129V76.4129H32.9402L32.8801 75.8036ZM35.1199 45.8449H36.8363V46.1967L35.9781 47.1579H35.7464L35.1371 46.5143L35.1199 45.8449ZM35.9781 61.1117V61.4636L36.8363 62.4247V61.1375L35.9781 61.1117ZM36.2699 54.1348H37.1281V54.7441H36.2699V54.1348ZM36.2699 73.8727H36.5874L37.1109 74.5421L36.5874 75.1771H36.3128L36.2699 73.8727ZM37.4456 12.7796V13.7236H37.7374L38.3467 13.0285L38.0549 12.7624L37.4456 12.7796ZM37.4456 33.8048L38.0549 34.4141L38.5784 33.8048V33.1354H38.0549L37.4456 33.8048ZM38.0549 24.8197H38.3467L38.0549 25.1716V25.5148C38.4972 26.7485 39.2724 27.8357 40.2947 28.6557V26.476C39.9617 26.1953 39.6895 25.8496 39.4947 25.46C39.2999 25.0705 39.1867 24.6453 39.1619 24.2104H38.5784L38.0549 24.8197ZM38.5784 57.3873H39.7712V57.9966H38.5784V57.3873ZM40.6208 47.7929H41.1958L40.0029 49.0973H39.7712V48.7541L40.6208 47.7929Z" fill="white"/>
<path d="M45.7269 75.0653H46.585V75.6832H45.7269V75.0653ZM56.4797 0.739258C56.9689 0.739258 57.2092 1.15976 57.2092 1.99218H58.0673L57.8013 1.64034V1.38289L58.3248 0.739258H66.958C68.4897 2.07492 69.5691 3.85301 70.0474 5.8282C70.588 5.8282 70.9056 6.2487 70.9056 7.08113H71.7122V6.85801L70.0903 3.33951L68.2882 1.06536L68.5456 0.773584H76.3979C76.7497 0.773584 76.9213 1.63175 76.9213 3.34809L77.3847 3.95739V8.08519L77.9426 9.04634V11.947L78.466 12.9081V17.0359H79.0153V20.8805H79.5387V24.6564H80.0022V28.4839H80.56V33.5728H81.0749V38.0525H81.6327V38.6618C81.6327 39.1252 81.092 39.3569 80.0022 39.3569V39.9662C80.8603 39.9662 81.5297 40.6098 81.8901 41.8885H82.0961V45.0551L81.6327 45.6988H80.7745C80.4656 45.6988 79.9164 44.8406 79.2384 43.1243V39.3569H79.6503V39.0136L77.5821 36.1302V34.8772H78.6548V34.534L77.8482 33.5728H77.2903V34.8772H77.0329C72.4846 29.3564 70.2104 25.7377 70.2104 24.0214C69.5497 21.0006 68.5971 19.0955 67.3356 18.3232L66.8636 19.1813V22.6998L66.3487 23.3949L66.0827 23.0431V18.9153L65.5334 19.5246V22.0991L65.7909 23.6696L65.2674 24.3647V29.1018L64.7697 30.0286V32.9378L64.2805 33.8989V39.3311L63.7484 40.3266V48.9083L64.2805 49.5176H66.3744L67.6359 48.9083V42.5321H68.4169L68.9661 43.1414V47.0032C69.2836 47.0032 69.4381 47.4151 69.4381 48.2304L70.5108 48.9255V49.5348H69.9616V51.4828L69.4381 52.444V53.079L69.9616 54.0402L69.6955 54.392L69.9616 54.6495H70.219L70.5108 54.392V54.0573L70.2104 52.0921H71.0686C71.0686 52.6013 72.1842 54.0859 74.4155 56.546H74.7073V58.4941L75.2307 59.1034C76.0889 59.1034 77.0415 59.747 78.1056 61.0257H78.9209L79.4444 60.4164C78.7836 59.0004 78.0713 58.1422 77.2903 57.8419C74.7732 54.6721 72.6012 51.2429 70.8112 47.6125C70.8112 46.7543 70.4507 46.3596 69.7299 46.3596V45.6902C70.0817 45.6902 70.2534 45.2697 70.2534 44.4373C70.794 44.4373 71.1115 44.1197 71.1115 43.4847C69.3952 43.2444 68.537 42.186 68.537 40.3095L67.6359 39.3569V38.6618H68.1594V38.4043L67.0781 36.1302V32.0024L66.6147 31.0412V29.0932H68.4169C68.4169 29.9514 68.6057 30.4062 68.9661 30.4062H69.4381V31.0412L68.434 32.6031V34.1735C68.8031 34.1735 68.9833 34.5082 68.9833 35.1604C69.6441 35.1604 69.9787 35.3836 69.9787 35.8298V36.1216L68.7001 36.4477C68.7001 37.0999 69.1206 37.4346 69.9787 37.4346V39.9576H70.528L71.0515 40.5755V42.5235H73.626V43.1328H74.3554V42.5235H74.9046L75.6942 43.4847V43.828H75.1707V45.3984L74.9046 45.6902V46.0077L75.1707 46.3596H75.4281L75.9774 44.4373H76.7669C76.7669 44.8492 77.1016 45.0466 77.7881 45.0466V45.6902L76.9728 46.0077L77.2303 46.3596C77.7366 47.9729 78.1914 48.8225 78.5948 48.9341L78.8608 48.5908L78.5948 48.2389V47.0032H79.3843V48.2304H82.4651V50.1527H83.083V53.4051H83.6065V54.6237H83.3405L82.5252 54.0144V55.2674H82.2248C80.5085 54.392 79.636 53.5339 79.6074 52.6929H79.4015L79.144 53.0361V53.388C79.2384 54.2461 79.4787 54.6066 79.8649 54.6066V56.546H81.2036V55.9367H81.9588V57.1897L81.4954 58.1422V58.4941H81.9588L82.7483 57.8504H83.6065V60.425H84.1557V61.6693L83.083 62.9737H81.5383V63.583L84.6191 64.8874V66.7497H85.1426V70.5943H85.6575V75.0653H85.3743C84.8091 74.671 84.3492 74.144 84.035 73.5305C83.7208 72.9171 83.5619 72.236 83.5722 71.5468L83.3061 71.2293V69.3671H84.3788V69.0238C84.3788 68.4574 84.027 68.1656 83.3061 68.0627V67.419L84.1214 67.1015C83.7524 66.1318 83.3919 65.5997 83.0487 65.5053C83.008 66.4202 82.7267 67.3082 82.2334 68.0798H81.9674V69.3842H82.4909V70.6114H81.504V70.9547C81.4862 71.0874 81.4997 71.2224 81.5434 71.3489C81.5872 71.4754 81.6599 71.59 81.7558 71.6834C81.8517 71.7768 81.9681 71.8464 82.0958 71.8868C82.2234 71.9272 82.3587 71.9371 82.4909 71.9158V72.5251L81.9674 73.1688H81.2122C80.8628 72.9929 80.5754 72.7147 80.3884 72.3712C80.2013 72.0277 80.1235 71.6354 80.1652 71.2465H79.6503L78.9209 72.2076C79.4014 73.2546 79.9163 73.7781 80.4656 73.7781V76.3698H78.6548C78.6548 75.0911 78.3888 74.4474 77.8482 74.4474H77.2903V75.6746H77.8482V76.3698H71.3347L69.7299 75.0567V70.929L69.2665 69.9678V63.583H67.6359L66.8722 62.9737H63.9973L63.4738 62.2786L63.9973 61.4204L63.2164 60.4593L62.9246 60.7167L63.2164 61.0686V61.7036C63.2164 62.2529 62.5127 62.7763 61.1224 63.2741L60.599 65.5482H58.505C58.505 66.8269 58.1446 67.462 57.4237 67.462C56.3939 67.7537 55.8876 68.1742 55.8876 68.7149H55.6216L54.3429 67.462L54.0854 67.7537C54.3144 68.6664 54.8584 69.4688 55.6216 70.0193H55.8876L56.6943 69.41H59.5177C59.9639 69.41 60.496 70.2682 61.1224 71.9845H62.1351V72.5938L61.6717 73.5893V74.5418H62.1351V75.1511L61.6717 76.4641H61.3799L60.599 75.769L60.0411 76.4641H53.0471L51.7684 75.1511L50.6957 76.3698H48.8678L47.263 75.0567V74.4474L47.7865 73.7523H48.6017C48.6379 74.1539 48.7738 74.5401 48.9971 74.8758C49.2204 75.2115 49.524 75.4861 49.8804 75.6746H50.9531V74.4474C50.0949 74.4474 49.4084 73.5893 48.8678 71.8729H48.6017L48.0783 72.4822H47.7865V70.5685H47.263V69.9506H47.7865V69.3413H46.2504V68.6462H46.7996V66.7239C47.8294 66.7239 48.3443 66.4236 48.3443 65.8228C48.3443 65.3594 47.8294 64.9647 46.7996 64.5184V62.9737C46.9342 62.996 47.0722 62.9859 47.2021 62.9442C47.3321 62.9025 47.4502 62.8304 47.5467 62.7339C47.6432 62.6374 47.7152 62.5193 47.7569 62.3894C47.7987 62.2594 47.8088 62.1214 47.7865 61.9868L47.263 61.0257V57.1897L48.8678 56.546V55.2674C48.1469 55.2674 47.7865 55.0528 47.7865 54.6237V52.0492H48.3443V47.6211H48.8678V43.8365H49.417V40.5841H49.8804V39.3569H49.417V38.0525H49.8804V32.9635H50.4039V28.4839H50.9531V24.0214H51.4852V18.9153H51.9486V13.8263H52.4978V9.00343L53.0213 8.04228V4.52379C53.3903 4.21484 53.5791 3.04773 53.5791 1.03103L53.8366 0.739258H56.4797ZM49.1595 48.9083V49.5176H49.8804V48.9083H49.1595ZM49.6144 44.4458V45.0551H51.2106L51.94 44.1026V43.8365H50.9531L49.6144 44.4458ZM50.6871 47.0203V47.6382H51.4766V47.0203H50.6871ZM52.7553 38.6789L52.4892 39.0308V39.3741L53.2788 40.3352L51.7341 40.6012V41.5881L52.4892 42.5493V41.1848H53.2788V43.7593H55.1067V42.9011C55.1067 42.3004 54.6776 41.9743 53.828 41.9142V41.1848L54.3515 40.5497L55.1067 41.1848L55.3727 40.893C55.3727 40.4468 54.669 39.9233 53.2788 39.3226L52.7553 38.6789ZM52.2318 36.1044L51.94 36.4305V36.7738L52.4892 37.4174L52.7553 37.0656V36.7738L52.2318 36.1044ZM52.7553 52.6843L52.4892 53.0275V53.3794L53.0471 54.0573L53.3131 53.7055V53.448L52.7553 52.6843ZM55.3298 34.8515L55.0638 35.1433V35.4694L55.3298 35.8126C55.1494 36.0678 54.9198 36.2842 54.6545 36.4493C54.3893 36.6144 54.0936 36.7247 53.7851 36.7738V37.0656L54.5145 38.0267L55.0638 37.4174H55.3298V38.0267H56.6599V37.6749L55.3298 34.8515ZM53.7851 48.2046V48.5565L54.5145 49.509L54.772 49.1658V48.9083L54.3086 48.2132L53.7851 48.2046ZM54.772 50.1269L54.3086 51.1138V52.0664H54.772L56.145 51.4313V50.822L54.772 50.1269ZM55.3298 39.3311V39.9404H56.188V39.3311H55.3298ZM55.8533 29.0331V29.7282H56.6599V29.0331H55.8533ZM55.8533 43.0813V44.4458H56.6599V44.1026L55.8533 43.0813ZM57.3894 44.3858L57.1319 44.6518L57.3894 44.9951V45.6387L56.926 46.5998V47.2692L57.3894 48.1274V48.9083L56.4797 50.4959V50.8478C56.926 50.8478 57.1663 51.3713 57.2092 52.4182L57.4666 52.71H57.7584L58.0244 52.4182L57.7584 52.0921V50.1527C58.4221 50.1527 58.8683 49.4232 59.0972 47.9643L58.8054 47.6211H58.5479L58.0244 48.2304L57.7584 47.9643V46.3338H58.2819V45.407L57.3894 44.3858ZM56.926 38.6017L56.6599 38.9536L56.926 39.9061H57.6812V39.5629L56.926 38.6017ZM56.926 74.396V75.0053L58.2047 75.6231H58.4707L59.0199 75.0053L58.4707 74.396H56.926ZM57.9472 54.5637L57.6812 54.9155V55.2073L58.2047 55.8767L58.4707 55.5248V55.2073L57.9472 54.5637ZM58.4707 56.486L58.2047 56.8378C58.7635 57.6702 59.0623 58.65 59.0628 59.6526H59.7923V58.7515C59.2173 57.2841 58.7882 56.546 58.5222 56.546L58.4707 56.486ZM59.0542 3.56264V4.86705L59.3203 6.47183H60.0411C60.0411 5.4077 60.3158 4.86705 60.8993 4.86705V4.52379L60.0411 3.56264H59.0542ZM59.5177 42.5321L59.3203 42.8754L59.5177 43.1414V44.1026L59.3203 44.4458V44.7119L59.5177 45.0551H59.7837C59.7837 44.4201 60.0497 44.1026 60.599 44.1026L60.8564 43.8365V43.1414L59.5177 42.5321ZM60.0583 6.85801L59.8009 7.11546V7.81058H60.6161V7.46731L60.0583 6.85801ZM60.0583 45.0895L59.8009 45.4413V45.7331L60.3243 46.4025L60.6161 46.0506V45.7331L60.0583 45.0895ZM60.0583 59.747L59.8009 60.0989V60.4507H60.0583L59.8009 60.7082V61.06C59.8009 61.4805 60.0669 61.695 60.6161 61.695L60.3243 62.0212V62.3129L60.8736 63.008L61.1396 62.6562V62.3129L60.0583 59.747ZM61.9463 63.6173H62.6757V65.5396C61.9634 67.256 61.4485 68.1142 61.1396 68.1142H60.8736V67.4705L61.397 66.5094V64.9389C61.7661 64.8874 61.9463 64.4584 61.9463 63.583V63.6173ZM61.9463 68.097H62.6757V68.6462L62.1522 70.5685H61.397L60.8736 69.9506V69.3413C61.6288 69.3671 61.9463 68.9294 61.9463 68.0627V68.097ZM63.2335 9.99033V10.2907L63.7484 10.9343H64.2805V10.5825L63.7484 9.93884L63.2335 9.99033ZM65.2931 14.47L65.0357 14.8218V15.4397C65.5592 15.4397 65.8166 16.1777 65.8166 17.6538H66.1084L66.6319 17.0359V16.6926L65.2931 14.47ZM67.0953 23.4293H67.9106L68.434 24.0386V25.3516L69.9787 24.6479V25.3516C69.9787 25.7549 69.6441 25.9609 68.9833 25.9609V26.5959H70.528V27.2138L68.9833 28.5182H68.1766C67.8591 28.5182 67.3184 27.231 66.6319 24.6479V24.0214L67.0953 23.4293ZM67.6531 20.8548H68.434V21.4469L67.9106 22.0648L67.6531 21.773V20.8548ZM71.3175 15.0964V15.4397H71.6007L72.3301 15.1222V14.4786H71.8667L71.3175 15.0964ZM72.0727 32.3371H72.5962V32.9807L72.0727 33.59H71.8667L71.3175 32.9807L72.0727 32.3371ZM73.6431 65.5053V65.8486L74.1666 66.7497L73.1196 68.3802V68.6462C73.4715 68.6462 73.6431 69.0839 73.6431 69.9506H74.1666C74.1666 70.3626 74.5957 70.5685 75.4453 70.5685L75.7113 70.9118V72.4822L74.6901 73.7952H74.3983L73.1454 72.5423L72.5962 73.1859L72.0727 72.5423L71.8667 72.8942L72.0727 73.1859V74.4904H71.6007V75.7175H72.3301V74.4904H73.1883C73.2655 75.3485 73.523 75.7175 73.9692 75.7175L76.5437 73.5378C76.5437 72.877 76.7926 72.5423 77.2732 72.5423H77.565V71.933C76.5352 71.933 75.9259 70.9719 75.7371 69.0581L74.3983 67.4534L74.6901 66.4922L73.6431 65.5053ZM73.1196 9.956L72.8279 10.3078V10.5996L73.686 11.269H73.9435V10.9515L73.1196 9.956ZM73.6431 70.5943L73.1196 71.5468L73.9006 72.508L74.1666 72.1905L73.9006 71.8987V71.5468L74.1666 71.2293V70.9375L73.9006 70.5943H73.6431ZM75.7113 64.8874L75.1878 65.8486L75.9945 66.7497L76.2605 66.4579L75.9945 66.1146V65.8486L76.2605 65.5053V65.1535L75.9945 64.8874H75.7113ZM76.2863 51.4828V52.1179H77.565V51.4828H76.2863ZM77.831 24.6393L77.565 24.9911C77.9168 25.9609 78.2687 26.4929 78.6377 26.5873L78.9037 26.3041V25.9523L77.831 24.6393ZM80.9633 67.1273V67.4448L81.9845 66.1404H81.7786L80.9633 67.1273ZM82.7741 55.9711H83.6322V56.5804H82.7741V55.9711ZM82.7741 75.0997H83.6322V75.7175L83.083 76.3698H82.7912L82.7741 75.0997ZM83.8468 75.7175H84.602V76.3698H83.8468V75.7175Z" fill="white"/>
<path d="M92.3513 0.971191L93.5098 2.28419H93.7758C93.7758 1.42602 93.9818 0.971191 94.3851 0.971191H103.456C105.126 2.25023 106.331 4.04047 106.889 6.06872L108.313 7.34739H108.579V6.38624L108.021 5.77694H107.704L108.021 5.42509V4.46394C107.575 4.46394 106.631 3.53712 105.172 1.67489V0.971191H105.73L105.988 1.32304L106.339 0.971191H109.129L109.738 1.67489V13.9982C109.738 14.4101 109.352 14.6161 108.579 14.6161V15.5772H108.828L109.686 15.3112V26.742L111.952 27.9606H112.475C113.04 27.5238 113.745 27.3072 114.458 27.3513L114.81 26.3902V25.7809H114.458L114.81 23.5153V1.70922L115.359 1.00552H131.879L132.428 1.70922V35.0062H131.527C131.08 35.0062 130.806 34.5685 130.711 33.6932H130.162V36.2677H129.553V38.1299L132.428 41.3567V42.5581H131.527C130.986 42.5581 130.711 41.9145 130.711 40.6358H130.454L129.596 41.3395H128.738L126.85 39.6832V39.4172H126.24V40.0265L126.85 41.9488H128.214L129.072 42.91V43.1674H128.523V44.4804L129.072 45.7848L129.63 45.0897L129.364 43.5192L129.63 42.5581H130.239L130.531 44.1285L131.338 43.8711V45.0897H130.239V45.7848L130.789 46.3941H131.338L132.196 45.7848H132.488V67.9771H132.196L131.587 67.3678L131.939 67.0159C131.201 66.8786 130.626 66.235 130.222 65.0936V64.4843L130.772 63.5232V61.6095H130.514L129.656 62.2188H129.098V61.9527L130.557 59.6872H131.364V59.0779C130.669 59.0779 130.188 58.4342 129.913 57.1556H129.098V57.8507H128.549C128.549 58.2626 128.171 58.4686 127.408 58.4686C127.408 59.1465 126.841 59.7816 125.691 60.3823V61.6095H126.24V62.2188C126.652 62.2188 126.85 62.6564 126.85 63.5232H127.399V66.6641L128.214 66.0548H128.54V69.2214L127.931 69.8908H127.665L126.807 69.2214L126.197 70.1826V70.5001H126.85V72.4224H127.399V74.2846H127.116L126.498 73.6753L126.85 73.3836L125.133 70.809V69.5046L125.691 68.5435H124.524V72.9888C124.97 72.9888 125.382 73.3149 125.691 73.9499C125.691 74.5936 125.957 74.9111 126.498 74.9111H126.85V76.164H123.417V75.8722L123.975 74.9111C123.057 74.9111 122.404 73.847 121.992 71.7101L121.735 71.4184V69.1785C122.447 69.1785 122.808 68.9726 122.808 68.5435C122.095 68.5435 121.735 68.226 121.735 67.5823L122.284 66.6212L121.735 65.4026H121.126C121.093 66.3189 120.811 67.2089 120.31 67.9771H119.984V69.2214H120.534V70.5001H119.375V71.1437H119.984L120.534 71.753V73.0317H119.126C118.757 73.0317 118.371 72.4052 117.968 71.1437H117.109L116.552 71.753V72.4224H117.109L118.242 73.6753V76.2498H116.526C116.526 74.9626 115.96 74.3275 114.81 74.3275V72.4224H115.359V71.753H114.835V61.3434L114.483 60.9916V60.6483L114.835 60.3823H115.385V60.9916H116.552L117.109 60.3823C116.74 59.1036 116.165 58.4686 115.393 58.4686L114.835 57.4902V52.4185L115.385 51.4573H114.835V48.9086L114.483 47.3381L114.835 46.9863H115.385L115.934 48.9086L116.543 48.2993L116.2 47.3381L116.543 46.9863H117.101V48.2993H121.057L121.666 47.6041L121.315 47.3381L121.666 46.9863H122.216V48.2993L122.739 47.6041V46.9863H122.216C122.216 46.5829 121.829 46.377 121.057 46.377V45.7677H120.499V46.377H120.242C118.525 45.699 117.624 45.1755 117.624 44.8065C117.624 44.1715 117.444 43.8539 117.101 43.8539V40.3783L116.809 40.0265V39.6832L117.101 39.4172H117.624C117.624 39.9578 118.105 40.2754 119.075 40.3783L119.341 40.6358L119.95 40.0265L119.341 39.4172H117.624C117.624 39.0139 116.878 38.1643 115.385 36.8427V34.9719C116.157 34.9719 116.543 34.7573 116.543 34.3283L115.385 33.6589H114.835V34.9719H114.483C112.618 33.1869 111.689 31.9053 111.694 31.1273C109.406 29.0162 108.262 27.5544 108.262 26.742L107.361 25.0858V23.5153H106.837V21.593C106.468 21.593 106.288 21.1897 106.288 20.3744C105.644 20.3744 105.069 19.7308 104.572 18.4521H104.22L103.405 19.4133V24.1246L104.22 23.5153C104.649 23.5153 105.035 24.1504 105.387 25.429L106.837 24.8197V25.429C106.837 25.841 106.451 26.0383 105.679 26.0383V26.742H107.395V27.9606L105.679 28.6043H104.623C104.623 27.6345 104.331 27.0081 103.765 26.742L104.031 26.3902V26.0383L103.473 25.429H102.924V27.3513L103.473 28.3125V28.6043H102.924V29.2736H105.189C105.189 30.1318 105.576 30.518 106.357 30.518V31.7966C105.576 31.8996 105.189 32.2172 105.189 32.7578V33.616C105.601 34.8002 106.168 35.4439 106.906 35.5383V36.2076H105.747V36.8942C105.747 37.3061 106.133 37.5035 106.906 37.5035V40.078C107.661 40.181 108.039 40.4985 108.039 41.0391V42.5581H110.544L111.446 43.1674L112.261 42.5581L113.119 43.5192V43.8711L112.501 44.4804H110.785C110.785 44.8837 110.416 45.0897 109.678 45.0897V50.1786H109.326C108.785 50.1786 108.519 49.5608 108.519 48.3164C108.15 48.3164 107.961 47.9989 107.961 47.3553L106.829 46.0508L107.961 43.8711C107.961 43.3991 107.404 43.1674 106.245 43.1674L105.387 41.9488L105.679 40.9876L104.572 39.6832V39.0653L105.121 38.1128C104.752 38.1128 104.572 37.7009 104.572 36.8856H103.962V40.0265L105.679 43.5192V47.0034C106.082 47.0034 106.288 47.4411 106.288 48.3164C107 48.4108 107.361 48.7112 107.361 49.1746V49.4921H106.837V52.0666H106.288V52.6845L106.837 54.5982L107.361 53.9889V53.0535L107.095 52.7102V52.4185L107.361 52.0924H107.97C107.97 52.8132 108.545 53.4569 109.686 54.0147V62.9139H109.077V63.4974H109.686V72.4224H109.077V74.2846H108.528V74.954C108.528 75.3831 108.914 75.5891 109.686 75.5891V76.2069H107.97V75.5891H107.361V76.2069H104.863L103.962 75.5891H103.405V76.2069H97.1227V75.5891H96.5992V76.2069H92.008L91.742 74.954L92.008 73.3836V69.2214H96.05V69.8908C96.419 69.8908 96.5992 70.3113 96.5992 71.1437L97.1227 71.753H97.732L98.2898 71.1437L97.1227 69.5475L98.5816 67.9771H98.839L99.4484 68.5864V69.8908H100.006L101.722 67.9771V66.6641C100.204 66.1234 99.4484 65.6 99.4484 65.0936L100.006 64.1325V63.4974H99.4484L97.732 67.9513H97.4145L96.8653 67.342L98.5816 63.1542C99.3969 63.1542 99.9547 62.5363 100.298 61.3177L100.04 60.3565H99.4827L98.8734 62.8881H97.157C97.157 62.03 96.9854 61.5837 96.6335 61.5837V59.6872H96.0843V61.6095C96.4533 61.6095 96.6335 62.0386 96.6335 62.9139H97.157V64.1325C96.8138 64.1325 96.6335 64.5701 96.6335 65.4455H94.368V67.3678H92.6516V67.9771H92.3084L92.0166 67.6252H91.7506L92.0166 67.3678V52.7102L91.7506 51.1398L92.0166 50.848H92.6516C92.6315 51.1313 92.6673 51.4159 92.7572 51.6853C92.847 51.9548 92.989 52.2039 93.1751 52.4185V52.7102C93.5098 52.7102 93.7758 51.7663 93.9904 49.8869L94.9344 48.9086V47.6213H94.3851V48.3164H93.7758L93.5098 46.6859L94.368 45.8277L93.7587 44.5233H93.2009V46.437H92.6774V47.0463L93.2009 48.0075V49.5779L92.6774 50.2216H92.3341L92.0423 49.9298H91.7763L92.0423 49.5779V48.5825L91.7763 47.0034C91.7895 45.9031 92.085 44.8245 92.6345 43.8711H91.9994V41.597L91.7334 38.456L92.5916 37.4949H91.9565V30.1747L92.5916 29.2736H91.9565V2.89349L91.6905 1.32304L91.9565 0.971191H92.3513ZM92.6945 38.8079V39.4172L93.218 40.0265L93.7758 39.4172L93.218 38.8079H92.6945ZM92.6945 74.2846V74.954L94.4109 75.5891L94.9601 74.954L94.4109 74.2846H92.6945ZM93.7758 54.624V55.937L94.3851 55.2418V54.624H93.7758ZM94.3851 56.5463V57.1556L94.9344 58.1167V59.6872H95.4922L96.1015 59.0779L94.9344 56.5463H94.3851ZM94.9344 3.85464V5.77694C95.5807 6.33333 95.9967 7.11036 96.1015 7.95669H96.6507V7.02129H96.1015V6.06872C96.4705 6.06872 96.8309 5.52807 97.1742 4.46394L96.6507 3.85464H94.9344ZM95.4922 42.5581V45.1326C95.8955 45.1326 96.1015 45.5703 96.1015 46.437L96.6507 45.8277V45.1326H96.1015V44.8666L97.1742 43.2103C96.4619 43.2103 96.1015 43.0043 96.1015 42.601L95.4922 42.5581ZM97.7835 73.0317V74.2846L98.3413 73.6753V73.0317H97.7835ZM101.216 66.6641V67.9771L100.607 68.5864H99.4998L99.1566 67.0159L99.4998 66.6641H101.216ZM99.4998 10.2223V10.8316L100.607 11.1834V10.8316L100.058 10.2223H99.4998ZM101.216 34.3283V35.5812L101.774 34.9719V34.3197L101.216 34.3283ZM101.774 14.5903V15.2855L102.589 17.8171L103.447 17.4652V17.2078C102.782 16.4849 102.378 15.5607 102.297 14.5818L101.774 14.5903ZM102.297 41.3138V41.9231H102.907L103.456 41.3138H102.297ZM102.297 45.7591V46.3684H102.907L103.456 45.7591H102.297ZM103.456 34.3197V36.242L104.014 35.5726V34.3197H103.456ZM104.271 20.9751H105.172V22.3053H104.915L104.271 21.6102V20.9751ZM109.42 32.4317H109.772V33.041L109.163 33.6503H108.614V33.3585L109.42 32.4317ZM115.427 24.8111V25.4204L116.286 26.3816H116.629V26.0297L116.02 24.8111H115.427ZM117.144 52.7017V54.6154H117.667V56.5463H118.826L119.684 55.937H119.984V57.8507H119.375V58.4686H119.984L121.701 57.1556L121.091 56.1944L121.701 55.2418L121.083 54.0576H120.525V55.2848H120.268C118.551 54.4695 117.65 53.843 117.65 53.4225V52.7532L117.144 52.7017ZM117.667 10.823V11.4666L118.277 12.0759L118.826 11.4666L118.277 10.823H117.667ZM118.268 23.5153V24.1246L119.632 25.7809H119.984V25.429L118.817 23.5153H118.268ZM118.817 67.0159V67.3678H119.375L119.984 66.6641V66.0719H119.632L118.817 67.0159ZM121.701 58.4342V60.348H122.25L122.773 60.9573V62.8796H122.516L121.701 62.1844L121.091 62.8796H119.375V63.4974C120.147 63.4974 120.534 63.7034 120.534 64.1067H122.25L122.773 64.7246V66.0719H123.417C123.439 65.103 123.836 64.1803 124.524 63.4974V62.8881L123.666 59.0521L122.808 58.4428L121.701 58.4342ZM119.984 34.9375V35.5469L120.534 36.2162L121.091 35.5469L120.534 34.9375H119.984ZM119.984 40.6015V41.3052H120.534L121.091 40.6015H119.984ZM120.534 37.4606V38.7736L121.091 38.0784V37.4949L120.534 37.4606ZM123.966 49.8525V50.1443H124.515V50.8137L123.966 51.423H123.7L121.126 49.5007H120.568V50.1443C121.151 50.1443 121.726 50.685 122.284 51.7748V54.0576H122.808C122.808 54.4695 123.194 54.6669 123.975 54.6669L124.524 55.2848V55.9799H125.133C125.133 56.3832 125.502 56.5892 126.24 56.5892V57.1985H127.399L129.115 55.9799C129.115 55.5165 128.729 55.2848 127.957 55.2848V54.6669H130.282L130.832 54.0576C130.325 54.0576 129.759 53.002 129.115 50.8909H128.566V52.7532H127.425V51.4831H126.85V52.736H126.498L125.949 52.1181L126.24 51.8349L125.133 50.4962V48.9086H124.79L123.966 49.8525ZM121.392 74.9197H121.701V76.1726H121.349L120.8 75.5547L121.392 74.9197ZM121.701 25.429V26.0383L122.25 26.742L122.773 26.0383L122.25 25.429H121.701ZM122.25 29.8829V31.1273L122.516 31.4791V31.7966L123.374 31.4791V31.1273L122.765 29.8829H122.25ZM122.773 32.4574V33.0667L123.417 34.3197L123.975 33.6503L123.417 32.4403L122.773 32.4574ZM123.383 23.5325V24.1418L124.49 25.4462L125.099 24.8369V24.1418L123.941 23.5325H123.383ZM124.49 38.8251V39.4344H125.133L125.691 38.8251H124.49ZM126.206 5.7941V8.92643L125.657 9.88757V11.4924H125.133V13.4061L126.197 14.5818L127.356 12.7195V12.0502H126.85V9.26111L127.399 8.29996V5.77694L126.206 5.7941ZM125.133 55.2418H126.24V55.937H125.133V55.2418ZM127.399 17.2335V17.8428L127.931 18.4521L128.54 17.8428L127.931 17.2335H127.399ZM127.399 24.4679V24.8197L127.931 25.7809V26.0383H127.399V26.742L127.931 27.3513L128.54 26.742V25.0858L128.214 24.8197L128.54 24.4679V23.5153H128.214L127.399 24.4679ZM129.115 73.6753H130.282V74.2846L129.673 74.954H129.407L129.115 74.6365H128.858L129.115 73.6753ZM129.407 67.9771H129.931C130.9 68.7494 131.381 69.3931 131.381 69.8908L132.239 69.2214H132.531V73.0317H132.239L131.381 72.4224H130.832V73.0317H130.574L129.931 72.4224L130.282 72.1049L129.115 71.753V71.4613L130.574 69.5475L129.407 67.9771ZM129.673 31.7966V32.4403H130.282L130.832 31.7966H129.673ZM131.647 36.8856L132.548 37.8467V39.4172H132.256L131.647 38.8079L131.999 38.456C131.664 38.456 131.364 38.0184 131.141 37.1516L131.424 36.8856H131.647ZM131.381 75.5891H132.548V76.2069H131.312L131.381 75.5891Z" fill="white"/>
<path d="M11.7349 81.7582H13.9489L15.3821 92.5625L16.8152 81.7324H18.8319L16.7122 95.6948H13.846L11.7349 81.7582Z" fill="white"/>
<path d="M19.7242 92.4083V85.0709C19.7242 82.8397 20.8999 81.561 23.0539 81.561C25.2079 81.561 26.3836 82.8397 26.3836 85.0709V92.4083C26.3836 94.6395 25.2079 95.9182 23.0539 95.9182C20.8999 95.9182 19.7242 94.6395 19.7242 92.4083ZM24.1867 92.5456V84.9336C24.1867 83.9382 23.749 83.552 23.0539 83.552C22.3588 83.552 21.9211 83.9382 21.9211 84.9336V92.5628C21.9211 93.5582 22.3588 93.9444 23.0539 93.9444C23.749 93.9444 24.1867 93.5411 24.1867 92.5628V92.5456Z" fill="white"/>
<path d="M27.7139 92.4855V84.9937C27.7139 82.8397 28.8295 81.561 30.9492 81.561C33.0689 81.561 34.1759 82.8397 34.1759 84.9937V86.4698H32.0992V84.8392C32.0992 83.921 31.6615 83.5348 31.0093 83.5348C30.3571 83.5348 29.8765 83.9811 29.8765 84.8392V92.6314C29.8765 93.5497 30.3142 93.9101 30.975 93.9101C31.6358 93.9101 32.0648 93.5497 32.0648 92.6314V90.4946H34.1674V92.4684C34.1674 94.6224 33.0517 95.9011 30.9406 95.9011C28.8295 95.9011 27.7139 94.6395 27.7139 92.4855Z" fill="white"/>
<path d="M35.4889 81.7583H41.4961V83.7578H37.6858V87.4136H40.6894V89.4132H37.6858V93.704H41.4703V95.7036H35.4631L35.4889 81.7583Z" fill="white"/>
<path d="M42.3887 92.408V91.6098H44.4654V92.5624C44.4654 93.5579 44.9031 93.9183 45.6068 93.9183C46.3105 93.9183 46.7396 93.5579 46.7396 92.5195C46.7396 91.4811 46.3019 90.623 44.8688 89.37C43.0323 87.7567 42.4316 86.6153 42.4316 85.0191C42.4316 82.8308 43.5729 81.5864 45.7012 81.5864C47.8295 81.5864 48.8936 82.8651 48.8936 85.0963V85.6713H46.8082V84.959C46.8082 83.9636 46.4135 83.5774 45.7184 83.5774C45.0233 83.5774 44.6199 83.9636 44.6199 84.9161C44.6199 85.8687 45.0747 86.6325 46.5079 87.9283C48.3444 89.5417 48.9193 90.6573 48.9193 92.3908C48.9193 94.6649 47.7694 95.9436 45.6154 95.9436C43.4614 95.9436 42.3887 94.6392 42.3887 92.408Z" fill="white"/>
<path d="M55.0637 81.7583H58.033L60.2985 95.7207H58.1102L57.7154 92.9488H55.2182L54.8234 95.6864H52.7896L55.0637 81.7583ZM57.4494 91.0952L56.4711 84.2298L55.51 91.0952H57.4494Z" fill="white"/>
<path d="M61.3541 81.7583H67.1553V83.7578H63.551V87.6453H66.3829V89.6363H63.551V95.7207H61.3541V81.7583Z" fill="white"/>
<path d="M70.1246 83.7578H67.8333V81.7583H74.6128V83.7578H72.3215V95.7207H70.1246V83.7578Z" fill="white"/>
<path d="M75.6685 81.7583H81.6757V83.7578H77.8826V87.4136H80.8948V89.4132H77.8826V93.704H81.6757V95.7036H75.6685V81.7583Z" fill="white"/>
<path d="M82.9028 81.7583H86.1467C88.4209 81.7583 89.3992 82.8224 89.3992 84.9679V85.826C89.3992 87.2677 88.9444 88.186 87.966 88.5807C89.0559 88.9154 89.4164 89.9538 89.4164 91.5243V93.9786C89.3769 94.5612 89.4587 95.1456 89.6566 95.695H87.4254C87.2439 95.1422 87.1768 94.5582 87.228 93.9786V91.4041C87.228 90.1169 86.8504 89.6878 85.8464 89.6878H85.0912V95.695H82.9028V81.7583ZM85.8893 87.7655C86.7045 87.7655 87.2023 87.4051 87.2023 86.298V85.2167C87.2023 84.2212 86.8676 83.7836 86.0866 83.7836H85.0912V87.7655H85.8893Z" fill="white"/>
<path d="M94.1191 81.7582H96.3161V87.4135H98.6674V81.7324H100.856V95.6948H98.6674V89.413H96.3161V95.6948H94.1191V81.7582Z" fill="white"/>
<path d="M102.332 92.4083V85.0709C102.332 82.8397 103.507 81.561 105.661 81.561C107.815 81.561 108.991 82.8397 108.991 85.0709V92.4083C108.991 94.6395 107.815 95.9182 105.661 95.9182C103.507 95.9182 102.332 94.6395 102.332 92.4083ZM106.794 92.5456V84.9336C106.794 83.9382 106.356 83.552 105.661 83.552C104.966 83.552 104.537 83.9811 104.537 84.9336V92.5628C104.537 93.5582 104.975 93.9444 105.679 93.9444C106.382 93.9444 106.794 93.5411 106.794 92.5628V92.5456Z" fill="white"/>
<path d="M110.381 92.408V81.7581H112.578V92.5624C112.578 93.5579 112.99 93.9184 113.694 93.9184C114.398 93.9184 114.81 93.5579 114.81 92.5624V81.7495H116.921V92.3994C116.921 94.6306 115.805 95.9093 113.651 95.9093C111.497 95.9093 110.381 94.6392 110.381 92.408Z" fill="white"/>
<path d="M118.474 81.7583H121.701C123.966 81.7583 124.944 82.8224 124.944 84.9679V85.826C124.944 87.2677 124.49 88.186 123.511 88.5807C124.61 88.9154 124.962 89.9538 124.962 91.5243V93.9786C124.922 94.5612 125.004 95.1456 125.202 95.695H122.971C122.789 95.1422 122.722 94.5582 122.773 93.9786V91.4041C122.773 90.1169 122.396 89.6878 121.4 89.6878H120.636V95.695H118.448L118.474 81.7583ZM121.46 87.7655C122.318 87.7655 122.782 87.4051 122.782 86.298V85.2167C122.782 84.2212 122.439 83.7836 121.666 83.7836H120.662V87.7655H121.46Z" fill="white"/>
<path d="M126.129 92.4084V91.6103H128.197V92.5629C128.197 93.5584 128.643 93.9188 129.338 93.9188C130.033 93.9188 130.471 93.5584 130.471 92.52C130.471 91.4816 130.033 90.6234 128.6 89.3705C126.764 87.7572 126.163 86.6158 126.163 85.0196C126.163 82.8313 127.304 81.5869 129.433 81.5869C131.561 81.5869 132.625 82.8656 132.625 85.0968V85.6718H130.557V84.9595C130.557 83.964 130.153 83.5779 129.458 83.5779C128.763 83.5779 128.36 83.964 128.36 84.9166C128.36 85.8692 128.815 86.633 130.256 87.9288C132.084 89.5421 132.668 90.6578 132.668 92.3913C132.668 94.6654 131.509 95.9441 129.355 95.9441C127.201 95.9441 126.129 94.6397 126.129 92.4084Z" fill="white"/>
</svg>
