<svg width="433" height="448" viewBox="0 0 433 448" fill="none" xmlns="http://www.w3.org/2000/svg">
<path d="M396.328 181.727L398.739 184.137C404.42 190.07 408.871 197.068 411.836 204.728C414.8 212.388 416.22 220.559 416.014 228.771C415.726 242.917 410.583 256.533 401.447 267.337C392.311 278.141 379.738 285.475 365.836 288.108C354.506 290.261 342.801 289.247 332.01 285.175L330.363 284.572L332.05 284.05C340.906 281.309 349.006 276.551 355.712 270.15L356.114 270.592L355.712 270.15C367.424 258.936 374.205 243.532 374.567 227.322C374.928 211.111 368.84 195.42 357.641 183.695C351.216 176.927 343.347 171.696 334.621 168.389L332.974 167.786L334.661 167.264C345.3 163.993 356.616 163.609 367.452 166.15C378.288 168.691 388.254 174.067 396.328 181.727Z" fill="#123A69"/>
<path d="M234.426 425.704V355.761H206.505V425.704H234.426Z" fill="#123A69"/>
<path d="M188.548 436.632C188.548 433.734 189.699 430.955 191.748 428.905C193.797 426.856 196.577 425.705 199.475 425.705H241.377C244.275 425.705 247.054 426.856 249.103 428.905C251.153 430.955 252.304 433.734 252.304 436.632C252.304 439.53 251.153 442.31 249.103 444.359C247.054 446.408 244.275 447.559 241.377 447.559H199.475C196.577 447.559 193.797 446.408 191.748 444.359C189.699 442.31 188.548 439.53 188.548 436.632Z" fill="#123A69"/>
<path d="M257.005 167.947H300.915V160.796C300.915 139.305 292.378 118.694 277.182 103.498C261.986 88.3018 241.375 79.7646 219.884 79.7646C198.393 79.7646 177.783 88.3018 162.586 103.498C147.39 118.694 138.853 139.305 138.853 160.796V167.947H182.683C183.854 167.947 185.014 168.177 186.096 168.625C187.178 169.073 188.162 169.73 188.99 170.558C189.834 171.385 190.503 172.373 190.959 173.463C191.414 174.554 191.646 175.724 191.642 176.906C191.642 179.282 190.698 181.561 189.018 183.241C187.338 184.921 185.059 185.865 182.683 185.865H138.853V203.34H182.683C184.96 203.493 187.095 204.505 188.654 206.172C190.213 207.839 191.081 210.037 191.081 212.319C191.081 214.602 190.213 216.799 188.654 218.466C187.095 220.133 184.96 221.146 182.683 221.298H138.853V238.774H182.683C185.059 238.795 187.332 239.751 189.008 241.435C190.685 243.12 191.631 245.396 191.642 247.773C191.642 250.149 190.698 252.428 189.018 254.108C187.338 255.788 185.059 256.732 182.683 256.732H138.853V274.208H182.683C185.059 274.208 187.338 275.151 189.018 276.831C190.698 278.512 191.642 280.79 191.642 283.166C191.642 285.542 190.698 287.821 189.018 289.501C187.338 291.181 185.059 292.125 182.683 292.125H138.853V292.406C138.853 313.897 147.39 334.508 162.586 349.704C177.783 364.9 198.393 373.438 219.884 373.438C241.375 373.438 261.986 364.9 277.182 349.704C292.378 334.508 300.915 313.897 300.915 292.406V292.125H257.005C255.827 292.131 254.66 291.902 253.57 291.454C252.481 291.006 251.491 290.346 250.658 289.513C249.825 288.68 249.166 287.69 248.717 286.601C248.269 285.512 248.041 284.344 248.046 283.166C248.046 280.79 248.99 278.512 250.67 276.831C252.35 275.151 254.629 274.208 257.005 274.208H300.915V256.732H257.005C255.827 256.737 254.66 256.509 253.57 256.061C252.481 255.612 251.491 254.953 250.658 254.12C249.825 253.287 249.166 252.297 248.717 251.208C248.269 250.118 248.041 248.951 248.046 247.773C248.041 246.593 248.269 245.424 248.717 244.332C249.164 243.241 249.823 242.248 250.656 241.412C251.488 240.576 252.478 239.912 253.567 239.46C254.657 239.007 255.825 238.774 257.005 238.774H300.915V221.298H257.005C255.824 221.304 254.653 221.074 253.561 220.623C252.469 220.172 251.477 219.509 250.644 218.672C249.81 217.835 249.152 216.84 248.706 215.746C248.26 214.652 248.035 213.481 248.046 212.299C248.046 209.923 248.99 207.644 250.67 205.964C252.35 204.284 254.629 203.34 257.005 203.34H300.915V185.865H257.005C254.629 185.865 252.35 184.921 250.67 183.241C248.99 181.561 248.046 179.282 248.046 176.906C248.046 174.53 248.99 172.251 250.67 170.571C252.35 168.891 254.629 167.947 257.005 167.947ZM219.884 345.476C217.021 345.476 214.222 344.629 211.839 343.04C209.457 341.452 207.598 339.194 206.497 336.551C205.396 333.908 205.102 330.998 205.652 328.188C206.202 325.378 207.571 322.794 209.587 320.761C211.603 318.728 214.176 317.337 216.982 316.764C219.787 316.191 222.699 316.461 225.351 317.54C228.003 318.62 230.276 320.46 231.884 322.829C233.492 325.198 234.363 327.99 234.387 330.853C234.403 332.768 234.039 334.667 233.318 336.44C232.596 338.214 231.53 339.827 230.182 341.186C228.834 342.546 227.23 343.625 225.462 344.361C223.695 345.097 221.799 345.477 219.884 345.476Z" fill="#123A69"/>
<path d="M402.716 185.222C402.716 190.003 402.515 194.743 402.194 199.484H381.785C382.187 194.784 382.428 190.003 382.428 185.222C382.443 154.273 373.588 123.967 356.913 97.8943C340.238 71.8211 316.441 51.0723 288.34 38.1044L288.019 39.0686C287.523 40.4172 286.764 41.654 285.787 42.707C284.809 43.76 283.632 44.6083 282.324 45.2026C281.016 45.7969 279.602 46.1253 278.166 46.1688C276.73 46.2124 275.299 45.9702 273.958 45.4563C239.476 32.3324 201.375 32.3324 166.893 45.4563C165.554 45.9696 164.127 46.2112 162.693 46.1672C161.26 46.1232 159.85 45.7943 158.545 45.1997C157.24 44.6052 156.066 43.7569 155.093 42.7043C154.119 41.6517 153.364 40.4157 152.873 39.0686L152.511 38.1044C124.42 51.0821 100.634 71.8344 83.9673 97.9062C67.3004 123.978 58.4501 154.278 58.4635 185.222C58.4635 190.003 58.6643 194.784 59.0661 199.484H38.6978C38.3362 194.743 38.1353 190.003 38.1353 185.222C37.7766 161.056 42.2266 137.059 51.2265 114.628C60.2264 92.1974 73.5966 71.7799 90.5594 54.5634C107.522 37.3469 127.739 23.6751 150.034 14.3432C172.329 5.0113 196.256 0.205566 220.426 0.205566C244.595 0.205566 268.522 5.0113 290.817 14.3432C313.112 23.6751 333.329 37.3469 350.292 54.5634C367.254 71.7799 380.625 92.1974 389.625 114.628C398.625 137.059 403.075 161.056 402.716 185.222Z" fill="#123A69"/>
<path d="M422.763 247.371C424.096 247.377 425.417 247.119 426.65 246.612C427.883 246.106 429.003 245.361 429.948 244.42C430.892 243.48 431.641 242.362 432.153 241.131C432.664 239.9 432.927 238.58 432.927 237.247V226.4C432.927 225.066 432.664 223.744 432.153 222.511C431.643 221.278 430.894 220.157 429.95 219.213C429.006 218.269 427.886 217.521 426.653 217.01C425.42 216.499 424.098 216.236 422.763 216.236C420.074 216.247 417.499 217.322 415.602 219.227C413.704 221.132 412.639 223.712 412.639 226.4V237.368C412.671 240.032 413.751 242.576 415.647 244.449C417.542 246.321 420.099 247.371 422.763 247.371Z" fill="#123A69"/>
<path d="M37.2117 271.958C36.3547 271.208 35.5512 270.404 34.8013 269.547C29.0174 263.504 24.5087 256.358 21.5438 248.536C15.7712 233.355 16.1459 216.522 22.5883 201.613C26.5926 192.366 32.7963 184.238 40.6595 177.936C48.5226 171.634 57.8068 167.35 67.7039 165.456C79.0346 163.304 90.7392 164.319 101.531 168.389L103.137 169.031L101.49 169.513C92.6298 172.245 84.528 177.004 77.8278 183.414L77.3859 182.972L77.8278 183.414C70.3756 190.625 64.8676 199.602 61.8156 209.513C58.7636 219.423 58.2668 229.944 60.3713 240.098C62.4758 250.252 67.1134 259.709 73.8529 267.59C80.5924 275.471 89.215 281.52 98.9192 285.175L100.526 285.777L98.879 286.3C88.2432 289.596 76.9202 289.993 66.0794 287.451C55.2386 284.909 45.273 279.518 37.2117 271.837V271.958Z" fill="#123A69"/>
<path d="M10.7368 206.314C8.05174 206.314 5.47669 207.38 3.57809 209.279C1.67949 211.177 0.612873 213.752 0.612873 216.437V227.405C0.607584 228.738 0.865542 230.059 1.37195 231.292C1.87835 232.525 2.62323 233.645 3.56385 234.59C4.50447 235.534 5.6223 236.283 6.85321 236.795C8.08412 237.306 9.40389 237.569 10.7368 237.569C13.4324 237.569 16.0177 236.498 17.9238 234.592C19.83 232.686 20.9008 230.101 20.9008 227.405V216.437C20.9008 215.105 20.6376 213.785 20.1264 212.554C19.6151 211.323 18.8658 210.205 17.9214 209.265C16.9771 208.324 15.8563 207.579 14.6233 207.073C13.3904 206.566 12.0696 206.308 10.7368 206.314Z" fill="#123A69"/>
</svg>
