<svg width="54" height="86" viewBox="0 0 54 86" fill="none" xmlns="http://www.w3.org/2000/svg">
<g filter="url(#filter0_dd)">
<path d="M22.4418 41.3503C22.3822 41.6109 22.2807 41.8519 22.144 42.0572L21.413 41.1837C21.4317 41.1358 21.4537 41.0901 21.4787 41.0474H20.3532L23.3043 71.9826H31.4651L32.7995 53.271H32.6061V52.6601H32.842L33.6697 41.0474H22.3992C22.4299 41.1432 22.4444 41.2465 22.4418 41.3503ZM23.4164 50.6405H24.0275L24.0855 50.802C23.9893 51.0595 23.867 51.2989 23.722 51.5139L23.4164 50.6405ZM25.3503 60.7385L25.0447 61.4504L24.6812 60.5769H25.3503V60.7385ZM24.6812 57.5576V56.9265H25.1685V57.5576H24.6812ZM24.6812 53.271H24.3756C24.2738 53.2235 24.1849 53.1378 24.1203 53.0246C24.0556 52.9114 24.0179 52.7758 24.0121 52.6348C24.0011 52.5378 24.0076 52.4388 24.0311 52.3457C24.0546 52.2525 24.0944 52.1678 24.1473 52.0982C24.2002 52.0286 24.2648 51.9761 24.336 51.9448C24.4072 51.9135 24.483 51.9043 24.5574 51.9179C24.6469 51.9202 24.733 51.9631 24.8011 52.039C24.8879 52.1229 24.9694 52.2157 25.0447 52.3167C25.1542 52.4664 25.2562 52.6249 25.3503 52.7913C25.2893 52.9461 25.1948 53.074 25.0786 53.1593C24.9624 53.2445 24.8296 53.2834 24.6966 53.271H24.6812ZM27.4814 63.9951H27.0521V63.3589H27.4814V63.9951ZM28.8196 66.6155H28.3903V65.9793H28.8196V66.6155ZM28.6494 48.116C28.6858 47.983 28.7515 47.867 28.8382 47.7826C28.9249 47.6982 29.0288 47.649 29.1368 47.6414C29.2564 47.6241 29.3768 47.6622 29.4772 47.7489C29.5775 47.8356 29.6514 47.9655 29.686 48.116V48.9894H29.4926C29.4155 48.9709 29.3427 48.9294 29.2799 48.8683C29.1788 48.793 29.0864 48.6995 29.0053 48.5906C28.9289 48.4909 28.8579 48.3847 28.7925 48.2725C28.7423 48.1614 28.692 48.116 28.6494 48.116ZM29.0787 53.7557L29.0169 53.6749L29.3224 52.8014L29.686 53.3063C29.5188 53.5236 29.3085 53.6757 29.0787 53.7456V53.7557ZM29.9915 51.5291L29.3224 50.6405H29.4423C29.5235 50.6405 29.7053 50.802 29.9915 51.1454V51.5291ZM31.3298 49.0046L30.6529 49.772C30.4092 49.7215 30.2661 49.5095 30.2661 49.1359C30.257 49.0498 30.2634 48.9621 30.2847 48.8797C30.3061 48.7974 30.3418 48.7226 30.3891 48.6614C30.4363 48.6002 30.4939 48.5542 30.5571 48.527C30.6204 48.4998 30.6876 48.4922 30.7535 48.5047C30.8618 48.5047 31.0397 48.6613 31.3298 48.9794V49.0046ZM29.0091 42.0925H29.9219C30.0582 42.0903 30.1933 42.1246 30.319 42.1932C30.4448 42.2618 30.5584 42.3633 30.6529 42.4914C30.5772 42.5918 30.5062 42.698 30.4402 42.8095C30.3358 42.966 30.2275 43.1275 30.1037 43.2841C29.9847 43.4447 29.8553 43.5917 29.7169 43.7233C29.6061 43.8382 29.4713 43.9069 29.3302 43.9202C29.2308 43.9388 29.1296 43.927 29.0344 43.8856C28.9392 43.8442 28.8527 43.7744 28.7818 43.6818C28.7109 43.5892 28.6574 43.4763 28.6257 43.3521C28.594 43.2278 28.5849 43.0956 28.5992 42.966C28.5815 42.7754 28.613 42.5826 28.6886 42.4181C28.7643 42.2535 28.8798 42.1265 29.0169 42.0572L29.0091 42.0925ZM28.398 44.2383L28.6417 44.7129C28.4721 44.8724 28.2891 45.0062 28.0964 45.1118H27.9726L28.398 44.2383ZM28.1582 51.0696C28.214 51.0582 28.2709 51.0616 28.3256 51.0794C28.3803 51.0972 28.4318 51.1292 28.4768 51.1735C28.5219 51.2178 28.5597 51.2734 28.5881 51.3371C28.6164 51.4007 28.6346 51.4712 28.6417 51.5442C28.3594 51.8674 28.1776 52.0239 28.0964 52.0239H27.9726L27.6709 51.5442C27.6939 51.3973 27.7565 51.2661 27.8474 51.1744C27.9382 51.0826 28.0513 51.0365 28.166 51.0444L28.1582 51.0696ZM27.4582 52.9378C27.5368 53.0491 27.608 53.169 27.6709 53.2962V53.5335C27.671 53.61 27.6538 53.6848 27.6214 53.7486C27.5891 53.8123 27.5431 53.8622 27.4891 53.892L27.1024 54.1293C26.9549 54.2123 26.8022 54.2781 26.646 54.3262C26.5856 54.3376 26.5275 54.3645 26.4751 54.4052C26.4227 54.4459 26.3769 54.4997 26.3404 54.5635V54.2455C26.3404 53.2962 26.646 52.8166 27.2571 52.8166C27.3335 52.8123 27.4083 52.8467 27.4659 52.9125L27.4582 52.9378ZM26.5145 41.219C26.6315 41.2164 26.7464 41.2605 26.8439 41.3453C26.9413 41.4301 27.0166 41.5516 27.0598 41.6936V42.0572H26.5725C26.464 42.0512 26.3581 42.0119 26.2634 41.9426C26.1686 41.8734 26.0877 41.776 26.0271 41.6583C26.0549 41.5174 26.1197 41.3938 26.2102 41.3089C26.3006 41.224 26.4111 41.1833 26.5222 41.1938L26.5145 41.219ZM26.2785 47.6111C26.5609 47.6111 26.704 47.8181 26.704 48.2422C26.704 48.3482 26.5802 48.5906 26.3365 48.9592H26.2166C26.0195 48.8307 25.835 48.6713 25.6674 48.4845V48.323C25.6674 47.8686 25.8724 47.6111 26.2785 47.6111ZM24.0275 42.9205H24.3911V43.0821C24.3911 43.1881 24.2712 43.4254 24.0275 43.794H23.9038C23.8225 43.794 23.6601 43.6375 23.4164 43.3194C23.4977 42.971 23.691 42.8347 24.0275 42.9407V42.9205ZM24.0855 44.9856C24.8978 44.9856 25.4238 45.3037 25.6674 45.9398C25.224 46.27 24.7195 46.4342 24.2093 46.4145C23.6989 46.4218 23.1956 46.2584 22.7473 45.9398C22.8711 45.3239 23.3043 45.0058 24.0778 45.0058L24.0855 44.9856Z" fill="#CA0873"/>
<path d="M39.2729 24.5066C39.1382 24.5645 38.9999 24.6134 38.8589 24.6531C38.5963 24.7238 38.354 24.7843 38.152 24.8298C37.9815 24.8544 37.8219 24.9281 37.6925 25.0418L37.3341 24.6884C37.4208 24.709 37.5111 24.7101 37.5984 24.6918C37.6856 24.6735 37.7678 24.6361 37.839 24.5824L38.4398 24.1936L39.0053 23.8048L39.081 23.7594C38.9203 23.2432 38.7281 22.7374 38.5054 22.2447C38.4448 22.3457 38.3186 22.5274 38.1217 22.79H37.6168C37.4697 22.7999 37.3231 22.7652 37.1961 22.6904C37.0691 22.6157 36.9676 22.5043 36.9049 22.3709C37.4754 21.866 37.8289 21.5883 37.9702 21.5883C38.0456 21.589 38.1205 21.6009 38.1924 21.6237C37.8574 20.9833 37.4671 20.3735 37.0261 19.801C36.8886 19.6679 36.7418 19.5447 36.5868 19.4324C36.4556 19.3274 36.2951 19.2657 36.1274 19.2557C36.2093 19.1769 36.2971 19.1043 36.3899 19.0386C34.3229 16.756 31.4811 15.3234 28.4167 15.0192C25.3524 14.715 22.2844 15.5609 19.809 17.3926C19.9749 17.5089 20.1334 17.6353 20.2836 17.7713L19.9301 18.1247L19.6171 17.5441C18.2322 18.6109 17.088 19.958 16.2595 21.4974C16.4665 21.5984 16.6887 21.7145 16.9613 21.8711C17.6118 22.2388 18.3364 22.4562 19.0819 22.5072C19.2241 22.508 19.366 22.4962 19.506 22.4719C19.65 22.4502 19.7919 22.4165 19.9301 22.3709L20.2836 22.79C20.2406 22.9268 20.1675 23.0523 20.0696 23.1571C19.9718 23.262 19.8516 23.3436 19.7181 23.3959C19.3967 23.5216 19.0533 23.5817 18.7083 23.5726H18.0014C17.9174 23.271 17.7653 22.9928 17.557 22.7591C17.3487 22.5254 17.0897 22.3425 16.7998 22.2245C16.5444 22.1164 16.2965 21.9916 16.0576 21.8509C15.7792 22.4115 15.5429 22.992 15.3507 23.5877C15.4975 23.5321 15.6531 23.503 15.8102 23.5019C16.2343 23.5019 16.5625 23.7846 16.82 24.3501C16.7166 24.4719 16.5858 24.5675 16.4384 24.6289C16.2909 24.6904 16.131 24.7159 15.9717 24.7036H15.1033C14.9344 25.4839 14.8397 26.2784 14.8206 27.0766C14.901 27.2327 14.9426 27.4059 14.9417 27.5815C14.9152 27.6532 14.874 27.7186 14.8206 27.7734C14.8497 28.5466 14.9494 29.3155 15.1184 30.0706H15.3658C16.7341 30.0706 17.3855 30.0706 17.2744 30.1363C17.575 30.3915 17.8616 30.6628 18.1327 30.9492C17.477 31.1544 16.8879 31.5309 16.4261 32.0398H15.7092C16.3177 33.5241 17.2076 34.8768 18.3296 36.0234H22.3234C22.3026 35.9937 22.2856 35.9615 22.2729 35.9275L22.6263 35.1499C22.6718 35.1499 22.8131 35.2711 23.0504 35.5034C23.2038 35.6396 23.3187 35.8137 23.3837 36.0083H36.0617C37.5271 34.5157 38.5902 32.676 39.1518 30.6611C39.7133 28.6462 39.755 26.5218 39.2729 24.4864V24.5066ZM19.9352 20.7956H18.8042L18.7335 20.7249C18.7201 20.629 18.7291 20.5312 18.7599 20.4393C18.7907 20.3474 18.8423 20.2639 18.9109 20.1954C18.9794 20.1269 19.0629 20.0752 19.1548 20.0444C19.2466 20.0137 19.3444 20.0046 19.4404 20.0181C19.7736 20.0181 19.9453 20.1595 19.9453 20.4422L19.9352 20.7956ZM35.2842 20.0181C35.6174 20.0181 35.7891 20.2099 35.7891 20.5836L35.4356 21.2197H35.2236C35.0155 21.1066 34.825 20.9637 34.6581 20.7956L34.5874 20.7249C34.5738 20.6285 34.5828 20.5302 34.6139 20.4379C34.6449 20.3455 34.6971 20.2617 34.7662 20.1931C34.8353 20.1244 34.9195 20.0729 35.0121 20.0425C35.1046 20.0121 35.203 20.0038 35.2993 20.0181H35.2842ZM35.7891 24.6884L35.4356 25.0418L35.0115 24.6884L35.4356 24.335L35.7891 24.6884ZM35.4356 26.3849C35.7325 26.3729 36.028 26.3375 36.3192 26.2788C36.6106 26.2208 36.906 26.1853 37.2028 26.1728H37.4199C37.5182 26.1752 37.6148 26.1994 37.7026 26.2435C37.5357 26.3123 37.3982 26.4373 37.3139 26.5969L36.9554 27.1624C36.8506 27.3395 36.7325 27.5083 36.602 27.6673C36.5575 27.7299 36.4994 27.7815 36.4321 27.8182C36.3647 27.855 36.2898 27.8759 36.2132 27.8794H36.0718C35.9732 27.8794 35.8761 27.8551 35.7891 27.8087C35.6612 27.6322 35.5061 27.4771 35.3296 27.3492C35.1175 27.1826 34.8954 27.021 34.6581 26.8443C34.4208 26.6676 34.2087 26.5262 34.0219 26.3849C33.932 26.3211 33.8591 26.2361 33.8098 26.1375C33.7605 26.0389 33.7363 25.9296 33.7392 25.8194L33.8805 25.466C34.0346 25.7593 34.267 26.004 34.5521 26.1728C34.8189 26.3227 35.1194 26.4026 35.4255 26.4051L35.4356 26.3849ZM34.234 23.9109C34.1504 24.0575 34.0252 24.1761 33.8742 24.2516C33.7232 24.3271 33.5532 24.3561 33.3857 24.335H33.103L32.3255 23.5574C32.3672 23.4387 32.4432 23.3351 32.5439 23.2596C32.6445 23.1841 32.7653 23.1402 32.8909 23.1333C32.9913 23.1493 33.0875 23.1854 33.1737 23.2393C33.3123 23.3067 33.4427 23.3897 33.5625 23.4867C33.6754 23.5759 33.7934 23.6585 33.9159 23.7341C34.0219 23.8048 34.1279 23.8806 34.2239 23.9109H34.234ZM32.6789 25.8194C32.4416 26.2889 32.2447 26.6929 32.078 27.021C31.9502 27.3044 31.78 27.5666 31.5731 27.7986L31.149 27.3745C31.2276 26.9973 31.4125 26.6505 31.6818 26.3749C31.951 26.0994 32.2935 25.9066 32.6688 25.8194H32.6789ZM33.1838 20.4422L32.3356 20.4422C32.2169 20.4004 32.1132 20.3244 32.0377 20.2238C31.9622 20.1231 31.9183 20.0023 31.9114 19.8767C31.9114 19.4526 32.1437 19.2405 32.6183 19.2405C33.0949 19.402 33.5295 19.6676 33.8906 20.0181C33.8278 20.155 33.7243 20.2692 33.5942 20.3451C33.464 20.421 33.3137 20.4549 33.1636 20.4422H33.1838ZM31.558 16.9079H33.1838C33.4665 16.9079 33.5625 16.9331 33.4665 16.9786C33.4211 17.3573 33.0424 17.5895 32.3356 17.6854C31.4873 17.7309 30.9673 17.8723 30.7805 18.1096L29.6293 17.3169C30.2085 16.988 30.8747 16.8452 31.5378 16.9079H31.558ZM22.2931 16.9786C22.4596 17.1728 22.602 17.3864 22.7172 17.6148L22.6465 17.7561C22.4979 17.8256 22.356 17.9084 22.2224 18.0035C22.1626 18.0574 22.0893 18.0941 22.0103 18.1096H21.869L21.5155 17.7561L22.2931 16.9786ZM21.0864 19.5031C21.0864 19.079 21.3237 18.8669 21.7983 18.8669C22.1265 18.8669 22.3032 19.0537 22.3032 19.4324C22.3032 19.5283 22.1618 19.7151 21.8791 19.9979L21.7377 20.0686C21.5065 19.9555 21.291 19.8129 21.0965 19.6445L21.0864 19.5031ZM21.0864 20.9875H21.7276V21.553H21.0864V20.9875ZM20.738 24.4562C20.9702 24.2643 21.2075 24.0775 21.4448 23.8907C21.9106 23.4537 22.5063 23.1807 23.1413 23.1131C23.7068 23.1131 24.2016 23.512 24.6257 24.3148V24.6682C24.5091 24.5391 24.3676 24.435 24.2097 24.3621C24.0517 24.2892 23.8807 24.249 23.7068 24.2441C23.5296 24.2503 23.3565 24.2987 23.2019 24.3855C23.0078 24.4822 22.807 24.5648 22.6011 24.6329C22.3948 24.7 22.194 24.7827 22.0002 24.8803C21.8454 24.9665 21.6724 25.0149 21.4953 25.0216C21.4104 25.1683 21.2842 25.2867 21.1325 25.3621C20.9808 25.4375 20.8102 25.4666 20.6421 25.4458H20.2886L19.9352 25.0216C20.2179 24.855 20.4805 24.6632 20.7178 24.4763L20.738 24.4562ZM24.1915 28.5761C24.0954 28.6513 23.988 28.711 23.8734 28.7529C23.7068 28.8235 23.5301 28.9094 23.3685 29.0003L22.803 29.283C22.6482 29.3692 22.4752 29.4176 22.2981 29.4244H22.1568C22.0596 29.4146 21.9643 29.3908 21.874 29.3537L21.0914 28.5761C21.5967 28.0581 22.2819 27.7544 23.005 27.7279C23.2675 27.7237 23.5244 27.8039 23.738 27.9566C23.9515 28.1093 24.1105 28.3264 24.1915 28.5761ZM19.5212 28.5055C18.5114 28.5055 17.9661 28.1773 17.9661 27.4957C17.9661 27.1675 18.2488 26.8595 18.8143 26.5767L20.2987 28.1318C20.2152 28.2612 20.0972 28.3647 19.9581 28.4307C19.8189 28.4967 19.6641 28.5226 19.5111 28.5055H19.5212ZM20.9349 30.9138C20.844 30.9138 20.632 30.7674 20.2987 30.4847V30.3483C20.2987 29.9192 20.536 29.7071 21.0106 29.7071C21.3388 29.7071 21.5155 29.899 21.5155 30.2726C21.5155 30.3685 21.3742 30.5553 21.0864 30.8431L20.9349 30.9138ZM23.8381 34.6602C22.798 34.6131 22.0204 33.9769 21.5054 32.7517L24.9691 33.9533C24.8627 34.1651 24.6998 34.3432 24.4984 34.468C24.297 34.5927 24.0649 34.6593 23.828 34.6602H23.8381ZM24.343 22.2447C24.1027 22.0854 23.9244 21.8483 23.8381 21.5732C23.5553 21.5277 23.414 21.3409 23.414 21.0077C23.3966 20.8767 23.4313 20.7441 23.5106 20.6383C23.5899 20.5326 23.7074 20.4622 23.8381 20.4422C23.8852 20.7249 24.1679 20.8663 24.6863 20.8663C24.8578 20.8806 25.0303 20.8565 25.1912 20.7956H24.9791C24.7269 20.7139 24.5079 20.5526 24.355 20.336C24.2021 20.1194 24.1235 19.859 24.1309 19.594V19.1345C25.2568 20.4624 26.7009 21.3056 28.1449 20.3715C28.4411 20.1856 28.6798 19.9209 28.8341 19.607C28.9883 19.2931 29.0522 18.9424 29.0184 18.5943C29.1867 18.847 29.4008 19.0662 29.6495 19.2405C29.5286 19.457 29.3549 19.6394 29.1446 19.7707C28.9048 19.9385 28.6553 20.0919 28.3973 20.2301C28.1507 20.3656 27.9144 20.5192 27.6905 20.6896C27.4919 20.8357 27.3536 21.0494 27.3017 21.2904L28.0792 21.9973L26.8776 23.1333C26.3259 22.9216 25.7587 22.7528 25.1811 22.6284C24.8758 22.5487 24.5858 22.419 24.3228 22.2447H24.343ZM27.3118 27.7986H26.8069C26.6601 27.8071 26.5142 27.7711 26.3881 27.6955C26.262 27.6198 26.1616 27.508 26.1 27.3745C26.5696 26.8696 26.923 26.5969 27.1603 26.5969C27.2369 26.587 27.3148 26.5948 27.3879 26.6197C27.461 26.6447 27.5275 26.686 27.5821 26.7406C27.6367 26.7953 27.6781 26.8617 27.703 26.9348C27.7279 27.0079 27.7357 27.0858 27.7258 27.1624C27.7258 27.26 27.5811 27.4721 27.2916 27.7986H27.3118ZM27.8167 29.3537C27.9725 29.27 28.1449 29.2217 28.3216 29.2123C28.3932 29.2029 28.466 29.209 28.535 29.2301C28.6041 29.2513 28.6678 29.287 28.7219 29.3348C28.7759 29.3827 28.8191 29.4416 28.8485 29.5075C28.8779 29.5735 28.8927 29.645 28.8921 29.7172C28.7683 29.8293 28.622 29.9137 28.463 29.9646C28.2762 30.0353 28.0893 30.1211 27.8975 30.212C27.7056 30.3029 27.5087 30.4039 27.2966 30.4948C27.2101 30.5234 27.1306 30.5702 27.0636 30.6321C26.9965 30.6939 26.9435 30.7693 26.9079 30.8532L26.1303 30.1413C26.2803 30.1255 26.425 30.0773 26.5544 30L27.1906 29.6819L27.8167 29.3537ZM26.1202 24.6884L26.8978 25.466C26.836 25.6116 26.7219 25.7287 26.5779 25.7942C26.4339 25.8596 26.2705 25.8686 26.1202 25.8194H25.7668L25.3427 25.466L26.1202 24.6884ZM28.2307 35.2257C27.7526 35.4261 27.2308 35.4991 26.716 35.4377L26.0798 35.5084L25.7264 35.155L26.2565 34.9783C26.5589 34.8672 26.854 34.7373 27.1401 34.5895C27.3942 34.5011 27.6539 34.4303 27.9177 34.3774C28.1287 34.3339 28.3434 34.3102 28.5589 34.3068H28.9073C29.0057 34.3079 29.1026 34.3321 29.19 34.3774C28.9633 34.7506 28.6288 35.0463 28.2307 35.2257ZM28.8366 25.466H28.7356C28.6205 25.4596 28.509 25.423 28.4125 25.3599C28.2914 25.284 28.1839 25.1885 28.0944 25.0772C28.0176 24.9781 27.935 24.8837 27.847 24.7944C27.8029 24.7388 27.7401 24.7012 27.6703 24.6884C27.7429 24.5484 27.8558 24.4332 27.9943 24.3576C28.1328 24.2821 28.2907 24.2496 28.4478 24.2643C28.9527 24.2643 29.2254 24.4511 29.2254 24.8298L28.8366 25.466ZM29.8464 23.9109H29.6343L28.8568 23.1333C28.9477 22.6284 29.493 22.3558 30.4826 22.3558C30.7217 22.3641 30.9566 22.2913 31.1491 22.1492C31.3416 22.0071 31.4803 21.8041 31.5429 21.5732L31.8963 21.9973C31.5655 22.3635 31.2806 22.7687 31.0481 23.204C30.8816 23.4133 30.6919 23.603 30.4826 23.7695C30.3925 23.8384 30.2884 23.8868 30.1776 23.9112C30.0668 23.9356 29.9521 23.9355 29.8413 23.9109H29.8464ZM31.5429 30.4746L30.7552 28.9296C30.9046 29.0741 31.082 29.1863 31.2766 29.2592C31.4712 29.3322 31.6787 29.3644 31.8862 29.3537C32.1964 29.3369 32.5042 29.2896 32.8051 29.2123C33.1362 29.1318 33.4745 29.0845 33.8149 29.0709C34.4258 29.0709 34.8247 29.5456 35.0166 30.4847C34.6396 31.2858 33.8856 31.7116 32.7546 31.7621C32.4345 31.7482 32.1157 31.7128 31.8004 31.656C31.351 31.5853 30.7906 31.4541 30.0685 31.2673L31.5429 30.4746ZM31.9064 36.0285L31.1187 35.5236L31.9619 35.8215C31.9384 35.8792 31.9182 35.9382 31.9013 35.9982L31.9064 36.0285ZM36.3697 31.8428C36.0726 32.3052 35.6844 32.7021 35.2286 33.0092C34.8601 33.1909 34.4309 33.2162 34.0775 33.4232C33.724 33.6302 33.5019 34.1704 33.8149 34.433C33.691 34.4153 33.5652 34.4153 33.4413 34.433V34.3976L33.411 34.4279C33.164 34.4577 32.9282 34.5479 32.7243 34.6905C32.5764 34.6077 32.4376 34.5095 32.3103 34.3976C32.5686 34.1858 32.8054 33.9491 33.0172 33.6908C33.2999 33.3626 33.5827 33.0193 33.8654 32.681C34.1481 32.3427 34.4208 31.9741 34.6783 31.6207C34.8747 31.3271 35.1269 31.0749 35.4205 30.8785H35.6326C35.8621 30.8314 36.1009 30.8682 36.3056 30.9822C36.5103 31.0961 36.6674 31.2797 36.7484 31.4995C36.6093 31.597 36.4807 31.7087 36.3647 31.8327L36.3697 31.8428ZM38.1924 29.3638H37.3189L36.8948 28.9397C37.0121 28.7878 37.1668 28.6688 37.3438 28.5945C37.5208 28.5202 37.714 28.493 37.9046 28.5155C38.1099 28.5105 38.3142 28.5465 38.5054 28.6216C38.6628 28.6883 38.7977 28.7987 38.8942 28.9397C38.822 29.0637 38.719 29.167 38.5952 29.2396C38.4713 29.3121 38.3309 29.3514 38.1873 29.3537L38.1924 29.3638Z" fill="#CA0873"/>
<path d="M19.0975 37.2251L20.0995 39.1033H25.0499L24.547 38.447H25.0886C25.17 38.4396 25.2516 38.4572 25.3268 38.4984C25.4021 38.5396 25.4689 38.6033 25.5219 38.6843L25.2046 39.1033H27.4214C27.261 38.9675 27.1197 38.7967 27.0036 38.5984C26.8391 38.3003 26.5921 38.0975 26.315 38.0329C26.2439 38.0297 26.1731 38.045 26.1067 38.078C26.0403 38.1109 25.9795 38.1608 25.9281 38.2248C25.8639 38.1899 25.8091 38.131 25.7706 38.0556C25.732 37.9801 25.7114 37.8914 25.7114 37.8007C25.7157 37.717 25.7384 37.6367 25.7768 37.5695C25.8153 37.5023 25.8678 37.4511 25.9281 37.422C26.2847 37.5059 26.6054 37.7573 26.8295 38.1289C26.9824 38.3123 27.1453 38.4811 27.317 38.6338C27.4377 38.7426 27.5866 38.7844 27.7309 38.7499L27.8779 38.7045C27.8252 38.8635 27.7474 39.0062 27.6497 39.1235H33.8911L34.7877 37.2453L19.0975 37.2251ZM21.5874 38.967H21.5525C21.4135 38.9187 21.2876 38.8208 21.1889 38.6843L21.4055 38.447C21.4916 38.5754 21.5645 38.718 21.6222 38.8711L21.5874 38.967ZM24.2607 38.4621H23.9357V38.0885H24.2607V38.4621ZM30.6131 38.2299L30.3423 38.1087C30.234 38.0632 30.1179 38.0077 29.998 37.9471C29.8806 37.8826 29.7605 37.827 29.6382 37.7805C29.5443 37.7402 29.4467 37.7165 29.348 37.7098C29.2612 37.7082 29.1752 37.7323 29.0966 37.7805L28.8451 37.9471L28.6633 37.7098C28.8207 37.5894 28.9917 37.5025 29.1701 37.4523C29.348 37.402 29.5297 37.3783 29.7117 37.3816C29.8867 37.3651 30.062 37.4086 30.2201 37.5078C30.3782 37.607 30.5137 37.7584 30.6131 37.9471V38.2299Z" fill="#CA0873"/>
</g>
<defs>
<filter id="filter0_dd" x="0.820557" y="0.958496" width="52.7855" height="85.0239" filterUnits="userSpaceOnUse" color-interpolation-filters="sRGB">
<feFlood flood-opacity="0" result="BackgroundImageFix"/>
<feColorMatrix in="SourceAlpha" type="matrix" values="0 0 0 0 0 0 0 0 0 0 0 0 0 0 0 0 0 0 127 0" result="hardAlpha"/>
<feOffset dx="-4" dy="-4"/>
<feGaussianBlur stdDeviation="5"/>
<feComposite in2="hardAlpha" operator="out"/>
<feColorMatrix type="matrix" values="0 0 0 0 1 0 0 0 0 0.411765 0 0 0 0 0.705882 0 0 0 0.25 0"/>
<feBlend mode="normal" in2="BackgroundImageFix" result="effect1_dropShadow"/>
<feColorMatrix in="SourceAlpha" type="matrix" values="0 0 0 0 0 0 0 0 0 0 0 0 0 0 0 0 0 0 127 0" result="hardAlpha"/>
<feOffset dx="4" dy="4"/>
<feGaussianBlur stdDeviation="5"/>
<feComposite in2="hardAlpha" operator="out"/>
<feColorMatrix type="matrix" values="0 0 0 0 1 0 0 0 0 0.411765 0 0 0 0 0.705882 0 0 0 0.25 0"/>
<feBlend mode="normal" in2="effect1_dropShadow" result="effect2_dropShadow"/>
<feBlend mode="normal" in="SourceGraphic" in2="effect2_dropShadow" result="shape"/>
</filter>
</defs>
</svg>
