<svg width="49" height="49" viewBox="0 0 49 49" fill="none" xmlns="http://www.w3.org/2000/svg">
<path d="M24.9176 47.772H24.9168C19.5724 47.7673 14.3938 45.9158 10.2581 42.5308C6.12227 39.1459 3.28343 34.4356 2.22225 29.1977C1.16106 23.9597 1.94276 18.5159 4.43497 13.7882C6.92602 9.06269 10.973 5.34283 15.891 3.25788C21.5322 0.969516 27.8473 0.992514 33.4718 3.32211C39.0985 5.65266 43.5818 10.1044 45.952 15.7145C48.3223 21.3247 48.389 27.6424 46.1377 33.3013C43.8872 38.9583 39.5012 43.5025 33.9277 45.9519C31.0773 47.1582 28.0128 47.7773 24.9176 47.772Z" stroke="#E1FFFF" stroke-width="2"/>
<path d="M15.4003 16.2095L11.4246 20.0926L24.7695 33.1245L38.1152 20.0886L34.1395 16.2056L24.7695 25.3584L15.4003 16.2095Z" fill="#E1FFFF"/>
</svg>
