<svg width="34" height="34" viewBox="0 0 34 34" fill="none" xmlns="http://www.w3.org/2000/svg">
<path d="M16.77 0.361328C14.6032 0.361328 12.4576 0.788113 10.4557 1.61732C8.45387 2.44652 6.63492 3.6619 5.10276 5.19407C2.00841 8.28842 0.27002 12.4853 0.27002 16.8613C0.27002 21.2374 2.00841 25.4342 5.10276 28.5286C6.63492 30.0608 8.45387 31.2761 10.4557 32.1053C12.4576 32.9345 14.6032 33.3613 16.77 33.3613C21.1461 33.3613 25.3429 31.6229 28.4373 28.5286C31.5316 25.4342 33.27 21.2374 33.27 16.8613C33.27 14.6945 32.8432 12.5489 32.014 10.5471C31.1848 8.54518 29.9694 6.72623 28.4373 5.19407C26.9051 3.6619 25.0862 2.44652 23.0843 1.61732C21.0824 0.788113 18.9368 0.361328 16.77 0.361328Z" fill="white"/>
<path d="M25.1111 15.3061C20.587 12.6199 13.0234 12.3372 8.71148 13.6803C8.0046 13.8923 7.29772 13.4682 7.08566 12.832C6.8736 12.1251 7.29772 11.4182 7.93391 11.2062C12.9528 9.72173 21.2232 10.0045 26.4541 13.1147C27.0903 13.4682 27.3024 14.3164 26.9489 14.9526C26.5955 15.4474 25.7473 15.6595 25.1111 15.3061ZM24.9697 19.2646C24.6162 19.7594 23.9801 19.9715 23.4852 19.618C19.6681 17.2853 13.8717 16.5785 9.41836 17.9922C8.85286 18.1336 8.21667 17.8508 8.07529 17.2853C7.93391 16.7198 8.21667 16.0836 8.78217 15.9423C13.9424 14.3871 20.3043 15.1647 24.6869 17.8508C25.1111 18.0629 25.3231 18.7698 24.9697 19.2646ZM23.2732 23.1524C22.9904 23.5766 22.4956 23.7179 22.0715 23.4352C18.7492 21.3852 14.5786 20.9611 9.63042 22.0921C9.13561 22.2335 8.71148 21.88 8.5701 21.4559C8.42873 20.9611 8.78217 20.537 9.2063 20.3956C14.5786 19.1939 19.244 19.6887 22.9197 21.9507C23.4146 22.1628 23.4852 22.7283 23.2732 23.1524ZM16.7699 2.72363C14.9133 2.72363 13.0749 3.08931 11.3597 3.79979C9.64443 4.51027 8.08592 5.55164 6.77312 6.86443C4.12181 9.51574 2.63232 13.1117 2.63232 16.8612C2.63232 20.6107 4.12181 24.2067 6.77312 26.858C8.08592 28.1708 9.64443 29.2121 11.3597 29.9226C13.0749 30.6331 14.9133 30.9988 16.7699 30.9988C20.5194 30.9988 24.1154 29.5093 26.7667 26.858C29.418 24.2067 30.9075 20.6107 30.9075 16.8612C30.9075 15.0046 30.5418 13.1662 29.8313 11.451C29.1208 9.73574 28.0795 8.17723 26.7667 6.86443C25.4539 5.55164 23.8954 4.51027 22.1801 3.79979C20.4649 3.08931 18.6265 2.72363 16.7699 2.72363Z" fill="#1DB954"/>
</svg>
