<svg width="101" height="74" viewBox="0 0 101 74" fill="none" xmlns="http://www.w3.org/2000/svg">
<path d="M0.464754 0.867432H3.08309L5.50505 3.28939L5.25631 3.53159V4.04871L6.81422 5.75718H6.99096V5.2466L5.90435 2.82464L4.39226 1.60057V1.33873L4.81119 0.867432H13.5106L14.1652 1.33873L13.9885 1.60057V2.55626L14.643 3.28939L14.4008 3.53159V6.94852L14.643 8.14641L13.9885 8.41478L15.0751 9.61267L14.8525 9.87451V12.2703L15.5071 13.0034L15.2845 13.2718V16.6625L15.9719 17.3957L15.7493 18.1288L15.9719 18.8619L15.7493 19.0583H15.2845C15.2845 18.4037 15.0751 18.1288 14.6627 18.1288H14.4205V18.5936L15.9719 20.3217L15.7493 20.5246V22.4883L16.4039 23.2215L16.2468 23.4637V25.4274L16.4039 26.6711L15.7493 27.3257L16.6199 28.5694L16.1748 29.3091L16.8294 30.0357L16.6133 31.2598H15.6838V30.2321H14.1325V30.7426C16.1748 31.5412 17.2417 32.1958 17.2417 32.7195L16.993 32.9224V33.1908L17.2417 34.1596L16.993 34.3756V34.644L17.2417 35.3771L16.993 35.6193H16.7704L16.3057 35.1087L15.9064 35.6193H15.6838C15.6838 35.2789 15.3238 35.1087 14.5972 35.1087C14.3918 34.925 14.2273 34.7 14.1145 34.4485C14.0018 34.197 13.9432 33.9246 13.9426 33.649H13.4975V30.2321H13.9426V30.0357C13.2161 28.8967 12.6335 28.3272 12.1687 28.3272V26.8675H13.0328V26.6449L12.3782 25.9118H12.1818L11.7825 26.3766L12.0051 26.6449L11.7825 26.8675H11.3178C11.3178 26.4311 10.7483 25.698 9.60929 24.6681C9.60929 23.9612 8.72561 22.8222 6.99096 21.2577C5.57269 16.5534 4.48172 14.2013 3.71804 14.2013H3.56094L3.08309 15.1766V18.1092L3.54784 18.5739V18.1092H4.20243L4.66718 19.5689L5.70143 19.0583L5.87816 19.3267V19.5885C5.87816 19.9027 5.5836 20.0598 5.01411 20.0598V20.5246C5.88471 20.5246 6.32328 20.7013 6.32328 21.0548L5.04684 21.9843H4.39226C4.13042 21.9843 3.73767 21.1857 3.30565 19.5885C2.84744 19.5885 2.61834 19.3463 2.61834 18.8619L2.21904 18.1288V15.4647L1.77392 14.7315V12.2703H1.35499V8.6308L0.909871 7.89767V5.73099L0.464754 4.99786V1.60057H0V1.33873L0.464754 0.867432ZM1.7281 11.3408V11.8055C1.97668 12.0582 2.16791 12.3615 2.28877 12.6947C2.40963 13.0279 2.45729 13.3833 2.42851 13.7366H2.58561L3.05036 13.2718V13.0034C2.80202 12.7986 2.59751 12.5457 2.44905 12.2601C2.30059 11.9744 2.21123 11.6617 2.18631 11.3408H1.7281ZM21.3656 0.867432H33.9205L34.3853 1.33873V3.30248L33.9205 3.76724L34.1431 4.03562V4.76875L33.9205 9.35084L34.1431 10.084L33.4885 10.8106L33.7111 11.0789L33.4885 11.3473V12.2768L33.7111 13.4747L33.0172 14.2079L33.266 14.4762L33.0172 14.7381V15.6741L33.266 16.9375L32.6114 17.5921L32.7881 17.8604L32.6114 18.1288V19.0583L32.7881 20.3217L32.1335 21.0548L32.3823 21.2577L32.1335 21.5196V22.9858L32.3823 24.1837L31.7277 24.9169L31.911 25.1787L31.7277 25.4012V25.9118L31.911 27.1097L31.2891 27.8428L31.5051 29.0604L31.2891 29.3091H31.0993L30.7 28.7985H30.4774V29.3091L30.7 29.5251V29.7935H30.4774L30.7 30.0357V30.2321L30.2614 30.9652V31.2336L31.0993 31.4758L30.8833 32.6933L31.0993 33.8912L30.2614 34.6243H29.1486C28.7719 34.4478 28.4507 34.1714 28.2199 33.8252C27.9891 33.479 27.8575 33.0763 27.8395 32.6606H27.4402V33.1319H26.9754L26.5761 32.6606V31.7245H28.3042V31.502L27.6496 30.7688L27.2503 31.2598C27.2503 30.9325 27.0409 30.7688 26.5957 30.7688V30.5266L26.7725 30.2583V30.0357L26.995 30.2583H27.4598V30.0357C27.4598 29.656 26.8707 29.2371 25.6859 28.7985V27.6137L23.7221 25.9249H23.4799V26.3897L23.7221 26.658V26.8806H23.4799L23.7221 27.1228V27.3454L23.0675 28.3403L23.3097 28.5891V28.8116L23.0675 29.5382L25.4895 32.1958L25.0247 32.726H24.8022C24.517 32.6125 24.2775 32.4077 24.1212 32.1436C23.9648 31.8794 23.9005 31.5709 23.9381 31.2663H23.4734V31.7311H22.629L20.6652 30.2648H20.423V30.7754L21.0776 31.7311L20.855 31.9994C22.0071 32.2351 22.5831 32.5428 22.5831 32.929L22.1839 33.6621H22.341L22.1839 33.9239V34.1596L23.0283 35.1087V32.7195H23.6829L23.4407 33.9174H23.6829L24.5469 33.6555V34.1596C24.5469 34.4803 24.2589 34.644 23.6829 34.644L23.4407 34.8862V35.1087L23.9054 35.6193H24.7695V35.1087H25.424V35.3771L25.2015 35.6193V35.8419L25.8561 36.575L25.6335 37.3081L25.8561 37.57H26.9754V36.5815H27.63L27.4533 37.7794L28.3173 38.5126V38.3096L27.8525 37.5765L28.3173 37.0463H28.5399C28.8802 37.0463 29.1944 37.7009 29.4105 39.01H29.6265V38.0478H30.2811V38.3096L30.0323 39.9788L30.2614 40.7054L28.9522 41.4386H27.8395L27.4402 39.4748H26.9754V40.2079L27.2176 40.4763V40.7054C26.4779 40.9149 26.1114 41.1571 26.1114 41.4386L26.7659 42.4401H26.5892L26.7659 42.6364V42.9048C26.7659 43.1863 26.275 43.4285 25.28 43.6314V43.8998C25.7382 45.0519 26.8249 46.0992 28.553 47.0287L28.3304 47.2971V47.4935L28.7297 49.2281L28.3304 49.6929L28.985 50.6878L28.3304 51.6435L28.553 51.8857L27.8656 52.6188L28.0882 52.8872V53.1425L27.8656 53.8691L28.553 54.6022L28.0882 55.1128H27.8656V54.6022L27.4663 54.1178H26.9754L26.5761 54.6022L26.7529 55.3354L25.4895 56.5333H25.2669V56.0685L24.8022 55.5776H24.4029L23.7483 56.0685H23.5061C23.5061 55.4139 23.3686 55.1128 23.1068 55.1128H22.6617V54.6022H23.1068L23.9709 53.6465V53.1425H23.5061L23.1068 52.6516V52.1868H23.349L24.8349 53.6465L25.2997 53.1425H25.5222L25.9215 53.6465C25.9215 53.9607 25.7121 54.1178 25.2669 54.1178V54.6022H25.6662C25.6662 54.2749 25.9673 54.1178 26.5761 54.1178V51.9184L26.1114 51.1788C27.1129 50.354 27.6169 49.7976 27.6169 49.5161L27.4402 49.2543H27.2176L25.6662 50.714C25.6662 51.6893 25.4502 52.1803 25.0117 52.1803H24.7891C24.7891 51.5257 24.6582 51.1788 24.3898 51.1788C24.1214 51.1788 23.925 50.8711 23.925 50.2493H23.4603V49.215H23.925V47.2513L23.2705 47.716H22.6159V47.2513C22.9563 47.2513 23.2705 47.0025 23.4603 46.5181C23.4603 46.0272 23.6894 45.785 24.1149 45.785H24.3571V45.5166C24.0861 45.3282 23.8615 45.0806 23.7005 44.7926C23.5394 44.5045 23.4461 44.1835 23.4276 43.854H23.0283C21.8434 44.6083 20.8108 45.5787 19.9844 46.7145C20.7813 47.7174 21.3025 48.911 21.4965 50.1772L21.3198 50.9104L21.4965 51.1068H21.7191V50.642H22.341L22.1839 51.5977L22.341 52.573L21.4965 53.568H21.3198V53.1425L20.6325 53.8691L21.0776 54.3797L20.855 54.6022V55.1063L21.5096 56.062V56.5267L21.0907 57.0373H20.8681C20.8681 56.2867 20.4317 55.3114 19.559 54.1113V53.64L19.9975 52.9134V52.645H19.559L19.1597 53.136V54.1113L19.3102 55.1063L19.1924 55.7608L20.279 57.0046L20.0303 57.2271C20.7569 57.43 21.1234 57.6788 21.1234 57.9603L20.6783 58.425H18.2563V57.9603H18.7276V57.7246C18.1909 56.8933 17.7458 56.4809 17.4185 56.4809V55.1063H17.0192V53.1425H17.8832V52.92C17.8832 52.501 17.5952 52.2654 17.0192 52.1868V51.6762H17.4185V51.0217L16.7639 50.2885H16.5479L16.1748 51.6435L16.3319 51.8857L15.6773 52.6188L16.3319 53.6138C16.3319 53.928 16.0439 54.0851 15.4678 54.0851V54.3469L16.3319 55.5448L15.9326 56.0358H14.8198L14.355 55.5448V54.5695H13.9557L13.3011 55.3026L14.6103 57.0111L14.3681 57.2337V57.4955L14.6103 58.2286L14.3681 58.4316H13.059C13.0791 57.9965 12.9368 57.5696 12.6597 57.2337V57.0111H12.1818L11.7825 57.4955L12.1818 58.2286V58.4316H7.83537V57.0111H8.05793L9.14454 57.9668C9.14454 57.7115 9.58965 57.3973 10.4537 57.0111V56.5005C11.0166 56.5005 11.2981 56.3434 11.2981 56.0358C11.2981 55.7281 11.5861 55.5448 12.1622 55.5448V55.1063C11.3178 55.1063 10.8988 54.4517 10.8988 53.1425H10.4537L9.62893 52.1541V50.9562L8.97435 50.2231H8.79761V50.6878H9.19691V51.421L8.57505 52.3767C8.57505 53.2734 9.22963 53.9346 10.5388 54.3404L10.7614 55.0735H10.5388L10.7614 55.2961V55.5383L9.89731 56.494H9.62893L8.76488 56.0292V55.5383H9.16418V54.0786L8.54232 54.8052L8.76488 55.5383L8.1103 56.0292H7.88774L7.48844 55.5383V52.6188H7.02369V49.215H6.62439V46.2956H6.15309V43.3696H5.70143V41.9033H6.09418V39.9788H6.35601L9.86458 43.9063L9.62893 44.6329L12.6662 46.7603H13.5303V45.8308C13.2226 45.8308 13.0655 45.497 13.0655 44.8358C12.4109 44.8358 11.704 44.1813 10.9381 42.8721C9.75112 41.9688 9.09654 41.0807 8.97435 40.2079C8.7387 40.2079 8.31976 39.5533 7.711 38.2442C7.25279 38.2442 7.02369 37.8252 7.02369 36.9808C6.75531 36.9808 6.62439 36.6732 6.62439 36.0513L5.70143 35.6258V35.3837C5.96762 34.5676 6.25782 34.1596 6.57202 34.1596V33.1908C5.26286 33.1908 4.60827 32.4577 4.60827 30.9914L3.9275 30.2321V29.7673H4.39226V29.4989L3.94714 28.7723V27.3323H3.54784V24.4455H3.08309V22.4818H4.39226C4.39226 23.3066 4.76537 23.7255 5.50505 23.7255V23.9481L4.39226 25.4012V25.9118C4.70646 26.7824 5.14503 27.2603 5.70143 27.3323V27.8428C5.09266 27.8428 4.78501 28.0065 4.78501 28.3272C4.78501 28.648 5.15158 28.8378 5.87816 29.0604L5.70143 29.3091V30.2321L6.78804 31.6983L6.56548 32.4315L9.13799 33.1646H9.62893V32.7195H9.85149L10.5061 33.4526L10.0086 34.1596L10.2311 34.3756V34.644L10.0086 35.3771L10.2311 35.6193H10.4733L10.9185 35.1087V34.1596H11.0952L12.1818 34.644V34.8862L11.7825 35.6193L12.4371 36.575L12.2145 36.8434L13.0786 37.57V36.1233H13.7659V37.0528H16.8032L17.4578 37.786V38.5191H17.0585V38.0544H16.4039V38.3162C17.2011 39.1686 17.6657 40.2789 17.713 41.4451L20.986 43.9063H21.85C21.85 43.5529 22.138 43.3761 22.7141 43.3761V42.4401H21.7649V41.9033H23.9381V41.7069C23.4498 41.0692 23.1504 40.3071 23.0741 39.5075L22.3868 39.0428H22.2297L22.3868 40.2407L22.2297 40.509H21.7649C21.4965 40.509 21.3656 40.1752 21.3656 39.5075C21.0514 39.5075 20.9009 39.8414 20.9009 40.509H20.4361C20.4067 39.7727 20.1059 39.0732 19.5917 38.5453V37.5765H19.1924L18.9437 38.3096L19.1924 39.0428L18.5378 39.5075H18.2891L17.8898 39.0428V36.5815H18.2891V30.7688H18.7604V26.6449L19.2251 25.9118V25.4012H18.7276V25.1787L19.1924 24.4455V20.0598H19.5917V14.4697L20.0303 13.7366V11.3408C20.6129 11.3408 21.0514 10.8498 21.3394 9.87451V9.61267L20.8747 8.87954V7.19071L21.3394 6.45758V4.75566L20.9009 4.04871V1.36492L21.3656 0.867432ZM3.9275 16.1978H4.61482V16.6625L4.15006 17.1273H3.9275V16.1978ZM4.37262 33.217H5.02721L4.62136 33.6817H4.39226L4.37262 33.217ZM4.79155 36.1233H5.48541C5.48118 36.734 5.69997 37.3252 6.10072 37.786L5.70797 38.3162L5.88471 38.5191V39.5141L5.48541 39.9854H5.23667V37.7794L4.79155 37.0463V36.1233ZM6.97132 11.8121V12.0805H7.19388L7.84846 11.8121L8.29358 12.2768V11.8121L7.84846 11.3473H7.44916L6.97132 11.8121ZM7.65863 24.9038H8.05793V25.3881L7.66518 25.9118H6.97132V25.65L7.65863 24.9038ZM8.28049 7.88457V8.6308L9.14454 8.89918V8.6308L8.52269 7.89767L8.28049 7.88457ZM10.2442 50.4325L10.9381 51.1788V49.719L10.2442 50.4325ZM11.1083 39.5206V39.9919H12.1818V39.5206H11.1083ZM12.1818 19.0583V19.5885L13.0459 20.5246V19.7915L12.3913 19.0583H12.1818ZM13.491 40.509V41.4386L14.1456 42.4401L13.9688 43.1667L14.1456 43.3696H15.2322V42.9048H15.9195V43.3696L15.6969 43.6314V43.8998L15.9195 44.1027L15.4547 44.6329V44.8358H16.1748C16.1748 44.5216 16.4562 44.3645 17.0192 44.3645V43.3696H16.5806V43.1667L17.0192 42.4401V42.1717L16.3646 41.4386H16.1748V41.7069L16.3319 42.4401H15.6773C15.6773 42.08 15.3893 41.9033 14.8132 41.9033C14.8132 41.5236 14.5252 41.3011 13.9492 41.2487V40.509H13.491ZM15.1994 50.6878L14.8001 51.1526V51.6435H15.0227L15.6773 50.9889V50.7206L15.1994 50.6878ZM16.9734 45.3661V45.8308L18.06 47.2971V47.7618L17.6149 48.2266H17.3727V47.7618L16.7181 48.2266H15.4089V48.7568C17.1545 49.071 18.0272 49.7256 18.0272 50.7206H18.204C18.204 49.7452 18.5182 49.2608 19.14 49.2608V47.7618H18.7276V45.3661L18.2563 44.8358H17.3923L16.9734 45.3661ZM16.5348 57.4955H16.7508L17.2221 57.9668L16.7508 58.4316H16.5348V57.4955ZM17.844 39.9788H18.4985V40.509H17.844V39.9788ZM18.7146 40.509H19.3299L18.9306 40.9738H18.7276L18.7146 40.509ZM19.3299 29.7935V30.2321H19.9844V29.7673L19.3299 29.7935ZM19.5786 42.4401H20.423V42.9048H19.5917L19.5786 42.4401ZM21.3525 13.2718L22.2166 14.2013V14.0049L21.562 13.2718H21.3525ZM21.7518 18.1288L21.3525 19.0583V19.3267H21.7518L21.5293 20.5246L22.1839 21.0548V18.1288H21.7518ZM21.7518 48.7568H22.3737V49.215H21.7518V48.7568ZM22.6159 56.5005H23.4603V56.7689L22.8057 57.4955H22.5831L22.6159 56.5005ZM23.2705 24.4259V24.8972H23.925V24.4259H23.2705ZM24.3571 28.3076H25.0117L25.8757 30.2713L25.4764 30.7819H25.2539L24.3898 28.8182L24.3571 28.3076ZM24.3571 57.9472H25.2211V58.4119H24.4029L24.3571 57.9472ZM26.0655 35.0956H27.3747V35.364L26.7201 36.0971H26.5434L26.0786 35.6062L26.0655 35.0956ZM26.7201 46.7407V47.0091L27.3747 47.7422V46.7603L26.7201 46.7407ZM26.9427 41.4189H27.5973V41.8837H26.9427V41.4189ZM26.9427 56.4743H27.1849L27.5842 56.9849L27.1849 57.4693H26.9754L26.9427 56.4743ZM27.8395 9.87451V10.5946H28.062L28.5268 10.0643L28.3042 9.86142L27.8395 9.87451ZM27.8395 25.9118L28.3042 26.3766L28.7035 25.9118V25.4012H28.3042L27.8395 25.9118ZM28.3042 19.0583H28.5268L28.3042 19.3267V19.5885C28.6416 20.5296 29.2329 21.3588 30.0127 21.9843V20.3217C29.7587 20.1076 29.551 19.8439 29.4024 19.5467C29.2539 19.2496 29.1675 18.9252 29.1486 18.5936H28.7035L28.3042 19.0583ZM28.7035 43.8998H29.6134V44.3645H28.7035V43.8998ZM30.2614 36.5815H30.7L29.7901 37.5765H29.6134V37.3147L30.2614 36.5815Z" fill="#B5FEFE"/>
<path d="M34.1562 57.3842H34.8108V57.8555H34.1562V57.3842ZM42.3581 0.690674C42.7312 0.690674 42.9145 1.01142 42.9145 1.64637H43.5691L43.3662 1.37799V1.18161L43.7655 0.690674H50.3506C51.5189 1.70948 52.3423 3.06575 52.7071 4.57236C53.1195 4.57236 53.3617 4.8931 53.3617 5.52805H53.977V5.35786L52.7398 2.67406L51.3652 0.939415L51.5616 0.716857H57.551C57.8194 0.716857 57.9503 1.37144 57.9503 2.68061L58.3038 3.14536V6.29391L58.7293 7.02705V9.23954L59.1286 9.97268V13.1212H59.5475V16.0538H59.9468V18.9339H60.3003V21.8534H60.7258V25.7351H61.1185V29.152H61.544V29.6167C61.544 29.9702 61.1316 30.147 60.3003 30.147V30.6117C60.9549 30.6117 61.4654 31.1026 61.7404 32.078H61.8975V34.4934L61.544 34.9843H60.8894C60.6538 34.9843 60.2348 34.3298 59.7177 33.0206V30.147H60.0319V29.8851L58.4543 27.6857V26.73H59.2726V26.4682L58.6573 25.7351H58.2318V26.73H58.0354C54.5661 22.5189 52.8315 19.7587 52.8315 18.4495C52.3274 16.1454 51.6009 14.6922 50.6386 14.1031L50.2786 14.7577V17.4415L49.8858 17.9717L49.6829 17.7033V14.5548L49.264 15.0195V16.9833L49.4604 18.1812L49.0611 18.7114V22.3247L48.6814 23.0316V25.2507L48.3083 25.9838V30.1273L47.9025 30.8866V37.4325L48.3083 37.8972H49.9055L50.8677 37.4325V32.5689H51.4634L51.8823 33.0337V35.9793C52.1245 35.9793 52.2423 36.2935 52.2423 36.9154L53.0606 37.4456V37.9103H52.6416V39.3962L52.2423 40.1294V40.6138L52.6416 41.3469L52.4387 41.6153L52.6416 41.8116H52.838L53.0606 41.6153V41.36L52.8315 39.861H53.4861C53.4861 40.2494 54.337 41.3818 56.0389 43.2583H56.2615V44.7442L56.6608 45.2089C57.3154 45.2089 58.042 45.6999 58.8536 46.6752H59.4755L59.8748 46.2105C59.3708 45.1304 58.8275 44.4758 58.2318 44.2467C56.3118 41.8289 54.655 39.2132 53.2897 36.4441C53.2897 35.7895 53.0148 35.4884 52.4649 35.4884V34.9778C52.7333 34.9778 52.8642 34.657 52.8642 34.0221C53.2766 34.0221 53.5188 33.7799 53.5188 33.2955C52.2096 33.1122 51.555 32.3049 51.555 30.8735L50.8677 30.147V29.6167H51.267V29.4204L50.4422 27.6857V24.5372L50.0888 23.804V22.3181H51.4634C51.4634 22.9727 51.6074 23.3196 51.8823 23.3196H52.2423V23.804L51.4765 24.9954V26.1933C51.758 26.1933 51.8954 26.4486 51.8954 26.946C52.3994 26.946 52.6547 27.1162 52.6547 27.4566V27.6792L51.6794 27.9279C51.6794 28.4254 52.0002 28.6807 52.6547 28.6807V30.6052H53.0737L53.473 31.0765V32.5624H55.4367V33.0271H55.9931V32.5624H56.412L57.0143 33.2955V33.5573H56.615V34.7552L56.412 34.9778V35.22L56.615 35.4884H56.8113L57.2303 34.0221H57.8325C57.8325 34.3363 58.0878 34.4869 58.6115 34.4869V34.9778L57.9896 35.22L58.186 35.4884C58.5722 36.719 58.9191 37.367 59.2268 37.4521L59.4297 37.1903L59.2268 36.9219V35.9793H59.829V36.9154H62.1789V38.3816H62.6502V40.8625H63.0495V41.792H62.8466L62.2248 41.3273V42.2829H61.9957C60.6865 41.6153 60.021 40.9607 59.9992 40.3192H59.8421L59.6457 40.581V40.8494C59.7177 41.504 59.901 41.7789 60.1955 41.7789V43.2583H61.2167V42.7935H61.7927V43.7492L61.4392 44.4758V44.7442H61.7927L62.3949 44.2532H63.0495V46.217H63.4685V47.1661L62.6502 48.1611H61.472V48.6259L63.8219 49.6208V51.0413H64.2212V53.9738H64.614V57.3842H64.398C63.9668 57.0834 63.6161 56.6814 63.3764 56.2135C63.1367 55.7456 63.0155 55.2261 63.0234 54.7004L62.8204 54.4582V53.0378H63.6387V52.7759C63.6387 52.3439 63.3703 52.1213 62.8204 52.0428V51.5519L63.4423 51.3097C63.1608 50.57 62.8859 50.1641 62.6241 50.0921C62.593 50.79 62.3785 51.4673 62.0022 52.0559H61.7993V53.0509H62.1986V53.9869H61.4458V54.2487C61.4323 54.35 61.4426 54.4529 61.4759 54.5494C61.5093 54.6459 61.5647 54.7333 61.6379 54.8045C61.711 54.8758 61.7998 54.9289 61.8972 54.9597C61.9946 54.9905 62.0978 54.9981 62.1986 54.9819V55.4466L61.7993 55.9376H61.2232C60.9568 55.8034 60.7376 55.5912 60.5949 55.3292C60.4522 55.0672 60.3928 54.7679 60.4247 54.4713H60.0319L59.4755 55.2044C59.8421 56.003 60.2348 56.4023 60.6538 56.4023V58.3792H59.2726C59.2726 57.4038 59.0697 56.9129 58.6573 56.9129H58.2318V57.849H58.6573V58.3792H53.689L52.4649 57.3777V54.2291L52.1114 53.496V48.6259H50.8677L50.2851 48.1611H48.0923L47.693 47.6309L48.0923 46.9763L47.4966 46.2432L47.2741 46.4396L47.4966 46.7079V47.1923C47.4966 47.6113 46.9599 48.0106 45.8994 48.3902L45.5001 50.1249H43.9029C43.9029 51.1002 43.628 51.5846 43.0782 51.5846C42.2927 51.8071 41.9065 52.1279 41.9065 52.5403H41.7035L40.7282 51.5846L40.5318 51.8071C40.7064 52.5033 41.1214 53.1154 41.7035 53.5352H41.9065L42.5218 53.0705H44.6754C45.0157 53.0705 45.4216 53.7251 45.8994 55.0342H46.6718V55.499L46.3184 56.2583V56.9849H46.6718V57.4497L46.3184 58.4512H46.0958L45.5001 57.921L45.0747 58.4512H39.7398L38.7645 57.4497L37.9462 58.3792H36.552L35.3279 57.3777V56.9129L35.7272 56.3827H36.349C36.3766 56.689 36.4803 56.9836 36.6506 57.2396C36.8209 57.4957 37.0525 57.7051 37.3244 57.849H38.1426V56.9129C37.488 56.9129 36.9644 56.2583 36.552 54.9492H36.349L35.9497 55.4139H35.7272V53.9542H35.3279V53.4829H35.7272V53.0181H34.5555V52.4879H34.9744V51.0216C35.7599 51.0216 36.1527 50.7925 36.1527 50.3343C36.1527 49.9809 35.7599 49.6797 34.9744 49.3394V48.1611C35.0771 48.1781 35.1824 48.1704 35.2815 48.1386C35.3806 48.1068 35.4707 48.0518 35.5443 47.9782C35.6179 47.9046 35.6729 47.8145 35.7047 47.7154C35.7365 47.6163 35.7442 47.511 35.7272 47.4083L35.3279 46.6752V43.7492L36.552 43.2583V42.2829C36.0021 42.2829 35.7272 42.1193 35.7272 41.792V39.8283H36.1527V36.4506H36.552V33.5639H36.9709V31.083H37.3244V30.147H36.9709V29.152H37.3244V25.2703H37.7237V21.8534H38.1426V18.4495H38.5484V14.5548H38.9019V10.6731H39.3209V6.99432L39.7202 6.26118V3.57739C40.0016 3.34174 40.1456 2.4515 40.1456 0.913231L40.342 0.690674H42.3581ZM36.7745 37.4325V37.8972H37.3244V37.4325H36.7745ZM37.1215 34.0286V34.4934H38.339L38.8954 33.7668V33.5639H38.1426L37.1215 34.0286ZM37.9397 35.9924V36.4637H38.5419V35.9924H37.9397ZM39.5172 29.6298L39.3143 29.8982V30.16L39.9165 30.8932L38.7383 31.0961V31.8489L39.3143 32.582V31.5412H39.9165V33.505H41.3108V32.8504C41.3108 32.3922 40.9835 32.1434 40.3355 32.0976V31.5412L40.7348 31.0568L41.3108 31.5412L41.5137 31.3187C41.5137 30.9783 40.977 30.579 39.9165 30.1208L39.5172 29.6298ZM39.1179 27.6661L38.8954 27.9148V28.1767L39.3143 28.6676L39.5172 28.3992V28.1767L39.1179 27.6661ZM39.5172 40.3126L39.3143 40.5745V40.8429L39.7398 41.36L39.9427 41.0916V40.8952L39.5172 40.3126ZM41.481 26.7104L41.2781 26.9329V27.1817L41.481 27.4435C41.3434 27.6381 41.1683 27.8032 40.9659 27.9291C40.7636 28.055 40.5381 28.1392 40.3027 28.1767V28.3992L40.8591 29.1324L41.2781 28.6676H41.481V29.1324H42.4956V28.864L41.481 26.7104ZM40.3027 36.8957V37.1641L40.8591 37.8907L41.0555 37.6289V37.4325L40.702 36.9023L40.3027 36.8957ZM41.0555 38.362L40.702 39.1148V39.8413H41.0555L42.1028 39.357V38.8922L41.0555 38.362ZM41.481 30.1273V30.5921H42.1356V30.1273H41.481ZM41.8803 22.2723V22.8025H42.4956V22.2723H41.8803ZM41.8803 32.9879V34.0286H42.4956V33.7668L41.8803 32.9879ZM43.052 33.9828L42.8556 34.1857L43.052 34.4476V34.9385L42.6985 35.6716V36.1822L43.052 36.8368V37.4325L42.3581 38.6435V38.9118C42.6985 38.9118 42.8818 39.3111 42.9145 40.1097L43.1109 40.3323H43.3335L43.5364 40.1097L43.3335 39.861V38.3816C43.8397 38.3816 44.1801 37.8252 44.3546 36.7124L44.132 36.4506H43.9357L43.5364 36.9154L43.3335 36.7124V35.4687H43.7328V34.7618L43.052 33.9828ZM42.6985 29.5709L42.4956 29.8393L42.6985 30.5659H43.2745V30.3041L42.6985 29.5709ZM42.6985 56.8736V57.3384L43.6738 57.8097H43.8768L44.2957 57.3384L43.8768 56.8736H42.6985ZM43.4775 41.7462L43.2745 42.0146V42.2371L43.6738 42.7477L43.8768 42.4793V42.2371L43.4775 41.7462ZM43.8768 43.2125L43.6738 43.4808C44.1001 44.1158 44.328 44.8631 44.3284 45.6279H44.8848V44.9406C44.4463 43.8212 44.119 43.2583 43.916 43.2583L43.8768 43.2125ZM44.3219 2.84425V3.83922L44.5248 5.06329H45.0747C45.0747 4.25161 45.2841 3.83922 45.7292 3.83922V3.57739L45.0747 2.84425H44.3219ZM44.6754 32.5689L44.5248 32.8308L44.6754 33.0337V33.7668L44.5248 34.0286V34.2316L44.6754 34.4934H44.8783C44.8783 34.009 45.0812 33.7668 45.5001 33.7668L45.6965 33.5639V33.0337L44.6754 32.5689ZM45.0877 5.35786L44.8914 5.55423V6.08445H45.5132V5.82261L45.0877 5.35786ZM45.0877 34.5196L44.8914 34.788V35.0105L45.2907 35.5211L45.5132 35.2527V35.0105L45.0877 34.5196ZM45.0877 45.6999L44.8914 45.9683V46.2366H45.0877L44.8914 46.433V46.7014C44.8914 47.0221 45.0943 47.1858 45.5132 47.1858L45.2907 47.4345V47.6571L45.7096 48.1873L45.9125 47.9189V47.6571L45.0877 45.6999ZM46.5278 48.6521H47.0842V50.1183C46.5409 51.4275 46.1482 52.0821 45.9125 52.0821H45.7096V51.5911L46.1089 50.858V49.6601C46.3904 49.6208 46.5278 49.2935 46.5278 48.6259V48.6521ZM46.5278 52.069H47.0842V52.4879L46.6849 53.9542H46.1089L45.7096 53.4829V53.0181C46.2856 53.0378 46.5278 52.7039 46.5278 52.0428V52.069ZM47.5097 7.74709V7.97619L47.9025 8.46713H48.3083V8.19875L47.9025 7.70782L47.5097 7.74709ZM49.0807 11.164L48.8843 11.4324V11.9037C49.2836 11.9037 49.48 12.4666 49.48 13.5925H49.7026L50.1019 13.1212V12.8594L49.0807 11.164ZM50.4553 17.9979H51.0772L51.4765 18.4626V19.4641L52.6547 18.9274V19.4641C52.6547 19.7718 52.3994 19.9289 51.8954 19.9289V20.4133H53.0737V20.8846L51.8954 21.8796H51.2801C51.0379 21.8796 50.6255 20.8977 50.1019 18.9274V18.4495L50.4553 17.9979ZM50.8808 16.0341H51.4765V16.4858L51.0772 16.9571L50.8808 16.7345V16.0341ZM53.6759 11.6419V11.9037H53.8919L54.4483 11.6615V11.1706H54.0948L53.6759 11.6419ZM54.2519 24.7925H54.6512V25.2834L54.2519 25.7482H54.0948L53.6759 25.2834L54.2519 24.7925ZM55.4498 50.0921V50.354L55.8491 51.0413L55.0505 52.285V52.4879C55.3189 52.4879 55.4498 52.8217 55.4498 53.4829H55.8491C55.8491 53.7971 56.1764 53.9542 56.8244 53.9542L57.0274 54.216V55.4139L56.2484 56.4154H56.0258L55.0701 55.4597L54.6512 55.9507L54.2519 55.4597L54.0948 55.7281L54.2519 55.9507V56.9456H53.8919V57.8817H54.4483V56.9456H55.1029C55.1618 57.6002 55.3582 57.8817 55.6985 57.8817L57.6623 56.219C57.6623 55.715 57.8521 55.4597 58.2187 55.4597H58.4413V54.995C57.6558 54.995 57.191 54.2618 57.047 52.8021L56.0258 51.578L56.2484 50.8449L55.4498 50.0921ZM55.0505 7.72091L54.828 7.98929V8.21184L55.4825 8.72242H55.6789V8.48022L55.0505 7.72091ZM55.4498 53.9738L55.0505 54.7004L55.6462 55.4335L55.8491 55.1913L55.6462 54.9688V54.7004L55.8491 54.4582V54.2356L55.6462 53.9738H55.4498ZM57.0274 49.6208L56.6281 50.354L57.2434 51.0413L57.4463 50.8187L57.2434 50.5569V50.354L57.4463 50.0921V49.8238L57.2434 49.6208H57.0274ZM57.4659 39.3962V39.8806H58.4413V39.3962H57.4659ZM58.6442 18.9208L58.4413 19.1892C58.7096 19.9289 58.978 20.3347 59.2595 20.4067L59.4624 20.1907V19.9224L58.6442 18.9208ZM61.0334 51.3293V51.5715L61.8124 50.5765H61.6553L61.0334 51.3293ZM62.4146 42.8197H63.0692V43.2845H62.4146V42.8197ZM62.4146 57.4104H63.0692V57.8817L62.6502 58.3792H62.4277L62.4146 57.4104ZM63.2328 57.8817H63.8089V58.3792H63.2328V57.8817Z" fill="#B5FEFE"/>
<path d="M69.7197 0.867432L70.6034 1.86895H70.8063C70.8063 1.21436 70.9634 0.867432 71.2711 0.867432H78.1901C79.4638 1.84304 80.3833 3.20858 80.8084 4.75566L81.895 5.73099H82.0979V4.99786L81.6724 4.5331H81.4302L81.6724 4.26472V3.53159C81.332 3.53159 80.612 2.82464 79.4992 1.40419V0.867432H79.9247L80.1211 1.13581L80.3895 0.867432H82.5169L82.9816 1.40419V10.804C82.9816 11.1182 82.687 11.2753 82.0979 11.2753V12.0085H82.2877L82.9423 11.8055V20.5246L84.6704 21.4541H85.0697C85.5007 21.1209 86.0381 20.9557 86.5818 20.9893L86.8502 20.2562V19.7915H86.5818L86.8502 18.0634V1.43037L87.2691 0.893616H99.8699L100.289 1.43037V26.8282H99.6015C99.2611 26.8282 99.0516 26.4944 98.9796 25.8267H98.5607V27.7905H98.0959V29.2109L100.289 31.6722V32.5886H99.6015C99.1891 32.5886 98.9796 32.0976 98.9796 31.1223H98.7833L98.1287 31.6591H97.4741L96.034 30.3957V30.1928H95.5693V30.6576L96.034 32.1238H97.0748L97.7294 32.857V33.0533H97.3104V34.0548L97.7294 35.0498L98.1549 34.5196L97.9519 33.3217L98.1549 32.5886H98.6196L98.8422 33.7865L99.4575 33.5901V34.5196H98.6196V35.0498L99.0385 35.5146H99.4575L100.112 35.0498H100.335V51.9774H100.112L99.6473 51.5126L99.9157 51.2442C99.3527 51.1395 98.9142 50.6486 98.6065 49.778V49.3132L99.0255 48.5801V47.1203H98.8291L98.1745 47.5851H97.749V47.3822L98.8618 45.6541H99.4771V45.1893C98.9469 45.1893 98.5803 44.6984 98.3709 43.7231H97.749V44.2533H97.3301C97.3301 44.5675 97.0421 44.7246 96.4595 44.7246C96.4595 45.2417 96.0275 45.7261 95.1503 46.1843V47.1203H95.5693V47.5851C95.8835 47.5851 96.034 47.9189 96.034 48.5801H96.4529V50.9758L97.0748 50.5111H97.3235V52.9265L96.8588 53.4371H96.6559L96.0013 52.9265L95.5365 53.6596V53.9018H96.034V55.3681H96.4529V56.7886H96.2369L95.7656 56.3238L96.034 56.1012L94.7248 54.1375V53.1425L95.1503 52.4094H94.2601V55.8001C94.6005 55.8001 94.9147 56.0489 95.1503 56.5333C95.1503 57.0242 95.3532 57.2664 95.7656 57.2664H96.034V58.2221H93.4157V57.9995L93.8411 57.2664C93.1407 57.2664 92.6433 56.4547 92.3291 54.8248L92.1327 54.6022V52.8938C92.676 52.8938 92.9509 52.7367 92.9509 52.4094C92.4076 52.4094 92.1327 52.1672 92.1327 51.6763L92.5516 50.9431L92.1327 50.0136H91.6679C91.6429 50.7125 91.4279 51.3914 91.0461 51.9774H90.7973V52.9265H91.2163V53.9018H90.3326V54.3928H90.7973L91.2163 54.8575V55.8329H90.1428C89.8613 55.8329 89.5667 55.355 89.2591 54.3928H88.6045L88.179 54.8575V55.3681H88.6045L89.4685 56.3238V58.2876H88.1594C88.1594 57.3057 87.7273 56.8213 86.8502 56.8213V55.3681H87.2691V54.8575H86.8698V46.9174L86.6014 46.649V46.3872L86.8698 46.1843H87.2888V46.649H88.179L88.6045 46.1843C88.323 45.209 87.8844 44.7246 87.2953 44.7246L86.8698 43.9783V40.1097L87.2888 39.3766H86.8698V37.4325L86.6014 36.2346L86.8698 35.9662H87.2888L87.7077 37.4325L88.1725 36.9677L87.9106 36.2346L88.1725 35.9662H88.5979V36.9677H91.6156L92.0803 36.4375L91.8119 36.2346L92.0803 35.9662H92.4993V36.9677L92.8986 36.4375V35.9662H92.4993C92.4993 35.6586 92.2047 35.5015 91.6156 35.5015V35.0367H91.1901V35.5015H90.9937C89.6845 34.9844 88.9972 34.5851 88.9972 34.3036C88.9972 33.8192 88.8598 33.577 88.5979 33.577V30.9259L88.3754 30.6576V30.3957L88.5979 30.1928H88.9972C88.9972 30.6052 89.3638 30.8474 90.1035 30.9259L90.3064 31.1223L90.7712 30.6576L90.3064 30.1928H88.9972C88.9972 29.8851 88.4277 29.2371 87.2888 28.229V26.8021C87.8779 26.8021 88.1725 26.6384 88.1725 26.3111L87.2888 25.8005H86.8698V26.8021H86.6014C85.1788 25.4405 84.4697 24.463 84.4741 23.8695C82.7285 22.2592 81.8557 21.1443 81.8557 20.5246L81.1684 19.2612V18.0634H80.7691V16.5971C80.4876 16.5971 80.3502 16.2894 80.3502 15.6676C79.8592 15.6676 79.4207 15.1766 79.041 14.2013H78.7726L78.1508 14.9344V18.5281L78.7726 18.0634C79.0999 18.0634 79.3945 18.5477 79.6629 19.5231L80.7691 19.0583V19.5231C80.7691 19.8373 80.4745 19.9878 79.8854 19.9878V20.5246H81.1946V21.4541L79.8854 21.945H79.0803C79.0803 21.2054 78.8577 20.7275 78.4257 20.5246L78.6286 20.2562V19.9878L78.2031 19.5231H77.7842V20.9893L78.2031 21.7225V21.945H77.7842V22.4556H79.5123C79.5123 23.1102 79.8069 23.4048 80.4025 23.4048V24.3801C79.8069 24.4586 79.5123 24.7008 79.5123 25.1132V25.7678C79.8265 26.6711 80.2585 27.1621 80.8215 27.2341V27.7447H79.9378V28.2683C79.9378 28.5825 80.2323 28.7331 80.8215 28.7331V30.6968C81.3975 30.7754 81.6855 31.0176 81.6855 31.43V32.5886H83.5969L84.2842 33.0533L84.9061 32.5886L85.5607 33.3217V33.5901L85.0894 34.0548H83.7802C83.7802 34.3625 83.4987 34.5196 82.9358 34.5196V38.4013H82.6674C82.255 38.4013 82.0521 37.93 82.0521 36.9808C81.7706 36.9808 81.6266 36.7386 81.6266 36.2477L80.7626 35.2527L81.6266 33.5901C81.6266 33.2301 81.2011 33.0533 80.3174 33.0533L79.6629 32.1238L79.8854 31.3907L79.041 30.3957V29.9244L79.4599 29.1978C79.1785 29.1978 79.041 28.8836 79.041 28.2618H78.5763V30.6576L79.8854 33.3217V35.9793C80.1931 35.9793 80.3502 36.3132 80.3502 36.9808C80.8935 37.0528 81.1684 37.2819 81.1684 37.6354V37.8776H80.7691V39.8414H80.3502V40.3127L80.7691 41.7724L81.1684 41.3076V40.5941L80.9655 40.3323V40.1097L81.1684 39.861H81.6332C81.6332 40.4109 82.0717 40.9018 82.9423 41.3273V48.1153H82.4776V48.5604H82.9423V55.3681H82.4776V56.7886H82.0586V57.2991C82.0586 57.6264 82.3532 57.7835 82.9423 57.7835V58.2548H81.6332V57.7835H81.1684V58.2548H79.2636L78.5763 57.7835H78.1508V58.2548H73.3592V57.7835H72.9599V58.2548H69.4579L69.255 57.2991L69.4579 56.1012V52.9265H72.541V53.4371C72.8225 53.4371 72.9599 53.7578 72.9599 54.3928L73.3592 54.8575H73.824L74.2495 54.3928L73.3592 53.1753L74.472 51.9774H74.6684L75.1331 52.4421V53.4371H75.5586L76.8678 51.9774V50.9758C75.7092 50.5635 75.1331 50.1642 75.1331 49.778L75.5586 49.0448V48.5604H75.1331L73.824 51.9577H73.5818L73.1628 51.493L74.472 48.2986C75.0939 48.2986 75.5193 47.8273 75.7812 46.8978L75.5848 46.1646H75.1593L74.6946 48.0957H73.3854C73.3854 47.4411 73.2545 47.1007 72.9861 47.1007V45.6541H72.5672V47.1203C72.8486 47.1203 72.9861 47.4476 72.9861 48.1153H73.3854V49.0448C73.1236 49.0448 72.9861 49.3787 72.9861 50.0463H71.258V51.5126H69.9488V51.9774H69.687L69.4644 51.709H69.2615L69.4644 51.5126V40.3323L69.2615 39.1344L69.4644 38.9119H69.9488C69.9335 39.128 69.9608 39.345 70.0293 39.5505C70.0978 39.7561 70.2062 39.9461 70.3481 40.1097V40.3323C70.6034 40.3323 70.8063 39.6123 70.97 38.1787L71.69 37.4325V36.4506H71.2711V36.9808H70.8063L70.6034 35.7371L71.258 35.0825L70.7932 34.0876H70.3678V35.5473H69.9685V36.0121L70.3678 36.7452V37.9431L69.9685 38.434H69.7066L69.4841 38.2115H69.2812L69.4841 37.9431V37.1838L69.2812 35.9793C69.2912 35.14 69.5166 34.3173 69.9357 33.5901H69.4513V31.8554L69.2484 29.4597L69.903 28.7265H69.4186V23.1429L69.903 22.4556H69.4186V2.3337L69.2157 1.13581L69.4186 0.867432H69.7197ZM69.9816 29.728V30.1928L70.3809 30.6576L70.8063 30.1928L70.3809 29.728H69.9816ZM69.9816 56.7886V57.2991L71.2907 57.7835L71.7097 57.2991L71.2907 56.7886H69.9816ZM70.8063 41.792V42.7935L71.2711 42.2633V41.792H70.8063ZM71.2711 43.2583V43.7231L71.69 44.4562V45.6541H72.1155L72.5803 45.1893L71.69 43.2583H71.2711ZM71.69 3.06683V4.5331C72.183 4.9575 72.5003 5.55019 72.5803 6.19575H72.9992V5.48225H72.5803V4.75566C72.8617 4.75566 73.1367 4.34327 73.3985 3.53159L72.9992 3.06683H71.69ZM72.1155 32.5886V34.5523C72.4232 34.5523 72.5803 34.8862 72.5803 35.5473L72.9992 35.0825V34.5523H72.5803V34.3494L73.3985 33.0861C72.8552 33.0861 72.5803 32.929 72.5803 32.6213L72.1155 32.5886ZM73.8632 55.8329V56.7886L74.2887 56.3238V55.8329H73.8632ZM76.4816 50.9758V51.9774L76.0168 52.4421H75.1724L74.9106 51.2442L75.1724 50.9758H76.4816ZM75.1724 7.92385V8.3886L76.0168 8.65698V8.3886L75.5979 7.92385H75.1724ZM76.4816 26.3111V27.2668L76.9071 26.8021V26.3046L76.4816 26.3111ZM76.9071 11.2557V11.7859L77.5289 13.7169L78.1835 13.4485V13.2522C77.6763 12.7008 77.3676 11.9958 77.3064 11.2491L76.9071 11.2557ZM77.3064 31.6394V32.1042H77.7711L78.1901 31.6394H77.3064ZM77.3064 35.0302V35.4949H77.7711L78.1901 35.0302H77.3064ZM78.1901 26.3046V27.7708L78.6155 27.2603V26.3046H78.1901ZM78.8119 16.1258H79.4992V17.1404H79.3028L78.8119 16.6102V16.1258ZM82.7394 24.8645H83.0078V25.3292L82.543 25.794H82.1241V25.5714L82.7394 24.8645ZM87.3215 19.0518V19.5165L87.9761 20.2497H88.2379V19.9813L87.7732 19.0518H87.3215ZM88.6307 40.3258V41.7855H89.03V43.2583H89.9136L90.5682 42.7935H90.7973V44.2533H90.3326V44.7246H90.7973L92.1065 43.7231L91.6417 42.9899L92.1065 42.2633L91.6352 41.36H91.2097V42.2961H91.0134C89.7042 41.6742 89.0169 41.1964 89.0169 40.8756V40.365L88.6307 40.3258ZM89.03 8.38206V8.873L89.4947 9.33775L89.9136 8.873L89.4947 8.38206H89.03ZM89.4882 18.0634V18.5281L90.529 19.7915H90.7973V19.5231L89.9071 18.0634H89.4882ZM89.9071 51.2442V51.5126H90.3326L90.7973 50.9758V50.5242H90.529L89.9071 51.2442ZM92.1065 44.6984V46.1581H92.5254L92.9247 46.6229V48.0891H92.7284L92.1065 47.5589L91.6417 48.0891H90.3326V48.5604C90.9217 48.5604 91.2163 48.7175 91.2163 49.0252H92.5254L92.9247 49.4965V50.5242H93.4157C93.4328 49.7851 93.7354 49.0813 94.2601 48.5604V48.0957L93.6055 45.1697L92.9509 44.7049L92.1065 44.6984ZM90.7973 26.7759V27.2406L91.2163 27.7512L91.6417 27.2406L91.2163 26.7759H90.7973ZM90.7973 31.0961V31.6329H91.2163L91.6417 31.0961H90.7973ZM91.2163 28.7004V29.7019L91.6417 29.1716V28.7265L91.2163 28.7004ZM93.8346 38.1525V38.3751H94.2535V38.8857L93.8346 39.3504H93.6317L91.6679 37.8842H91.2424V38.3751C91.6876 38.3751 92.1261 38.7875 92.5516 39.6188V41.36H92.9509C92.9509 41.6742 93.2455 41.8248 93.8411 41.8248L94.2601 42.2961V42.8263H94.7248C94.7248 43.1339 95.0063 43.291 95.5693 43.291V43.7558H96.4529L97.7621 42.8263C97.7621 42.4728 97.4675 42.2961 96.8784 42.2961V41.8248H98.6523L99.0713 41.36C98.6851 41.36 98.253 40.5549 97.7621 38.9446H97.3432V40.365H96.4726V39.3963H96.034V40.3519H95.7656L95.3467 39.8806L95.5693 39.6646L94.7248 38.6435V37.4325H94.463L93.8346 38.1525ZM91.8709 57.2729H92.1065V58.2286H91.8381L91.4192 57.7573L91.8709 57.2729ZM92.1065 19.5231V19.9878L92.5254 20.5246L92.9247 19.9878L92.5254 19.5231H92.1065ZM92.5254 22.9204V23.8695L92.7284 24.1379V24.3801L93.3829 24.1379V23.8695L92.9182 22.9204H92.5254ZM92.9247 24.8841V25.3489L93.4157 26.3046L93.8411 25.794L93.4157 24.871L92.9247 24.8841ZM93.3895 18.0764V18.5412L94.2339 19.5362L94.6987 19.0714V18.5412L93.815 18.0764H93.3895ZM94.2339 29.7411V30.2059H94.7248L95.1503 29.7411H94.2339ZM95.5431 4.54619V6.93543L95.1241 7.66856V8.89263H94.7248V10.3524L95.5365 11.2491L96.4202 9.82869V9.31811H96.034V7.19071L96.4529 6.45758V4.5331L95.5431 4.54619ZM94.7248 42.2633H95.5693V42.7935H94.7248V42.2633ZM96.4529 13.2718V13.7366L96.8588 14.2013L97.3235 13.7366L96.8588 13.2718H96.4529ZM96.4529 18.7899V19.0583L96.8588 19.7915V19.9878H96.4529V20.5246L96.8588 20.9893L97.3235 20.5246V19.2612L97.0748 19.0583L97.3235 18.7899V18.0634H97.0748L96.4529 18.7899ZM97.7621 56.3238H98.6523V56.7886L98.1876 57.2991H97.9847L97.7621 57.0569H97.5657L97.7621 56.3238ZM97.9847 51.9774H98.384C99.1236 52.5665 99.4902 53.0574 99.4902 53.4371L100.145 52.9265H100.367V55.8329H100.145L99.4902 55.3681H99.0713V55.8329H98.8749L98.384 55.3681L98.6523 55.1259L97.7621 54.8575V54.635L98.8749 53.1753L97.9847 51.9774ZM98.1876 24.3801V24.871H98.6523L99.0713 24.3801H98.1876ZM99.6931 28.2618L100.38 28.9949V30.1928H100.158L99.6931 29.728L99.9615 29.4597C99.7062 29.4597 99.4771 29.1258 99.3069 28.4647L99.5229 28.2618H99.6931ZM99.4902 57.7835H100.38V58.2548H99.4378L99.4902 57.7835Z" fill="#B5FEFE"/>
<path d="M8.22815 62.4894H9.91698L11.0101 70.7306L12.1033 62.4697H13.6416L12.0247 73.1198H9.83843L8.22815 62.4894Z" fill="#B5FEFE"/>
<path d="M14.3222 70.6128V65.0161C14.3222 63.3142 15.219 62.3389 16.862 62.3389C18.505 62.3389 19.4018 63.3142 19.4018 65.0161V70.6128C19.4018 72.3147 18.505 73.2901 16.862 73.2901C15.219 73.2901 14.3222 72.3147 14.3222 70.6128ZM17.726 70.7175V64.9114C17.726 64.1521 17.3922 63.8575 16.862 63.8575C16.3318 63.8575 15.9979 64.1521 15.9979 64.9114V70.7306C15.9979 71.49 16.3318 71.7845 16.862 71.7845C17.3922 71.7845 17.726 71.4769 17.726 70.7306V70.7175Z" fill="#B5FEFE"/>
<path d="M20.4164 70.6717V64.9572C20.4164 63.3142 21.2674 62.3389 22.8842 62.3389C24.501 62.3389 25.3455 63.3142 25.3455 64.9572V66.0831H23.7614V64.8394C23.7614 64.139 23.4275 63.8444 22.93 63.8444C22.4326 63.8444 22.066 64.1848 22.066 64.8394V70.783C22.066 71.4834 22.3998 71.7583 22.9039 71.7583C23.4079 71.7583 23.7352 71.4834 23.7352 70.783V69.1531H25.3389V70.6586C25.3389 72.3016 24.488 73.277 22.8777 73.277C21.2674 73.277 20.4164 72.3147 20.4164 70.6717Z" fill="#B5FEFE"/>
<path d="M26.347 62.4895H30.9291V64.0147H28.0228V66.8032H30.3138V68.3284H28.0228V71.6013H30.9095V73.1265H26.3274L26.347 62.4895Z" fill="#B5FEFE"/>
<path d="M31.6099 70.6127V70.0039H33.194V70.7305C33.194 71.4898 33.5279 71.7648 34.0646 71.7648C34.6014 71.7648 34.9287 71.4898 34.9287 70.6978C34.9287 69.9058 34.5948 69.2512 33.5017 68.2955C32.1009 67.0649 31.6427 66.1943 31.6427 64.9767C31.6427 63.3075 32.5133 62.3584 34.1366 62.3584C35.76 62.3584 36.5717 63.3337 36.5717 65.0357V65.4742H34.981V64.9309C34.981 64.1716 34.6799 63.877 34.1497 63.877C33.6195 63.877 33.3118 64.1716 33.3118 64.8982C33.3118 65.6248 33.6588 66.2074 34.7519 67.1958C36.1527 68.4264 36.5913 69.2774 36.5913 70.5996C36.5913 72.3343 35.7142 73.3096 34.0712 73.3096C32.4282 73.3096 31.6099 72.3146 31.6099 70.6127Z" fill="#B5FEFE"/>
<path d="M41.278 62.4895H43.5428L45.2709 73.1396H43.6018L43.3007 71.0253H41.3958L41.0947 73.1134H39.5433L41.278 62.4895ZM43.0977 69.6114L42.3515 64.3747L41.6184 69.6114H43.0977Z" fill="#FF69B4"/>
<path d="M46.076 62.4895H50.501V64.0147H47.7518V66.9799H49.9119V68.4986H47.7518V73.1396H46.076V62.4895Z" fill="#FF69B4"/>
<path d="M52.7659 64.0147H51.0182V62.4895H56.1894V64.0147H54.4417V73.1396H52.7659V64.0147Z" fill="#FF69B4"/>
<path d="M56.9946 62.4895H61.5767V64.0147H58.6835V66.8032H60.981V68.3284H58.6835V71.6013H61.5767V73.1265H56.9946V62.4895Z" fill="#FF69B4"/>
<path d="M62.5128 62.4895H64.9871C66.7217 62.4895 67.468 63.3012 67.468 64.9376V65.5922C67.468 66.6919 67.121 67.3923 66.3748 67.6934C67.2061 67.9487 67.4811 68.7408 67.4811 69.9387V71.8108C67.451 72.2551 67.5134 72.7009 67.6643 73.1199H65.9624C65.824 72.6983 65.7728 72.2529 65.8119 71.8108V69.847C65.8119 68.8651 65.5238 68.5379 64.758 68.5379H64.1819V73.1199H62.5128V62.4895ZM64.7907 67.0716C65.4126 67.0716 65.7922 66.7967 65.7922 65.9522V65.1275C65.7922 64.3682 65.5369 64.0343 64.9413 64.0343H64.1819V67.0716H64.7907Z" fill="#FF69B4"/>
<path d="M71.0682 62.4894H72.7439V66.8031H74.5375V62.4697H76.2067V73.1198H74.5375V68.3283H72.7439V73.1198H71.0682V62.4894Z" fill="#FF69B4"/>
<path d="M77.3325 70.6128V65.0161C77.3325 63.3142 78.2292 62.3389 79.8722 62.3389C81.5153 62.3389 82.412 63.3142 82.412 65.0161V70.6128C82.412 72.3147 81.5153 73.2901 79.8722 73.2901C78.2292 73.2901 77.3325 72.3147 77.3325 70.6128ZM80.7363 70.7175V64.9114C80.7363 64.1521 80.4025 63.8575 79.8722 63.8575C79.342 63.8575 79.0147 64.1848 79.0147 64.9114V70.7306C79.0147 71.49 79.3486 71.7845 79.8853 71.7845C80.4221 71.7845 80.7363 71.4769 80.7363 70.7306V70.7175Z" fill="#FF69B4"/>
<path d="M83.4725 70.6128V62.4895H85.1483V70.7307C85.1483 71.49 85.4625 71.7649 85.9992 71.7649C86.536 71.7649 86.8502 71.49 86.8502 70.7307V62.4829H88.4605V70.6063C88.4605 72.3082 87.6095 73.2835 85.9665 73.2835C84.3235 73.2835 83.4725 72.3148 83.4725 70.6128Z" fill="#FF69B4"/>
<path d="M89.6452 62.4895H92.1064C93.8345 62.4895 94.5807 63.3012 94.5807 64.9376V65.5922C94.5807 66.6919 94.2338 67.3923 93.4876 67.6934C94.3255 67.9487 94.5938 68.7408 94.5938 69.9387V71.8108C94.5638 72.2551 94.6262 72.7009 94.7771 73.1199H93.0752C92.9368 72.6983 92.8856 72.2529 92.9246 71.8108V69.847C92.9246 68.8651 92.6366 68.5379 91.8773 68.5379H91.2947V73.1199H89.6255L89.6452 62.4895ZM91.9231 67.0716C92.5777 67.0716 92.9312 66.7967 92.9312 65.9522V65.1275C92.9312 64.3682 92.6694 64.0343 92.0802 64.0343H91.3144V67.0716H91.9231Z" fill="#FF69B4"/>
<path d="M95.484 70.6127V70.0039H97.0616V70.7305C97.0616 71.4898 97.4019 71.7648 97.9321 71.7648C98.4624 71.7648 98.7962 71.4898 98.7962 70.6978C98.7962 69.9058 98.4624 69.2512 97.3692 68.2955C95.9684 67.0649 95.5102 66.1943 95.5102 64.9767C95.5102 63.3075 96.3808 62.3584 98.0042 62.3584C99.6275 62.3584 100.439 63.3337 100.439 65.0356V65.4742H98.8617V64.9309C98.8617 64.1716 98.554 63.877 98.0238 63.877C97.4936 63.877 97.1859 64.1716 97.1859 64.8982C97.1859 65.6248 97.5329 66.2074 98.6326 67.1958C100.027 68.4264 100.472 69.2774 100.472 70.5996C100.472 72.3343 99.5882 73.3096 97.9452 73.3096C96.3022 73.3096 95.484 72.3146 95.484 70.6127Z" fill="#FF69B4"/>
</svg>
