<svg width="34" height="34" viewBox="0 0 34 34" fill="none" xmlns="http://www.w3.org/2000/svg">
<path d="M16.77 0.993652C14.6032 0.993652 12.4576 1.42044 10.4557 2.24964C8.45387 3.07884 6.63492 4.29422 5.10276 5.82639C2.00841 8.92074 0.27002 13.1176 0.27002 17.4937C0.27002 21.8697 2.00841 26.0666 5.10276 29.1609C6.63492 30.6931 8.45387 31.9085 10.4557 32.7377C12.4576 33.5669 14.6032 33.9937 16.77 33.9937C21.1461 33.9937 25.3429 32.2553 28.4373 29.1609C31.5316 26.0666 33.27 21.8697 33.27 17.4937C33.27 15.3268 32.8432 13.1812 32.014 11.1794C31.1848 9.1775 29.9694 7.35856 28.4373 5.82639C26.9051 4.29422 25.0862 3.07884 23.0843 2.24964C21.0824 1.42044 18.9368 0.993652 16.77 0.993652Z" fill="white"/>
<path d="M16.7699 3.35596C14.9133 3.35596 13.0749 3.72164 11.3597 4.43212C9.64443 5.1426 8.08592 6.18396 6.77312 7.49676C4.12181 10.1481 2.63232 13.744 2.63232 17.4935C2.63232 21.243 4.12181 24.839 6.77312 27.4903C8.08592 28.8031 9.64443 29.8445 11.3597 30.5549C13.0749 31.2654 14.9133 31.6311 16.7699 31.6311C20.5194 31.6311 24.1154 30.1416 26.7667 27.4903C29.418 24.839 30.9075 21.243 30.9075 17.4935C30.9075 15.637 30.5418 13.7986 29.8313 12.0833C29.1208 10.3681 28.0795 8.80955 26.7667 7.49676C25.4539 6.18396 23.8954 5.1426 22.1801 4.43212C20.4649 3.72164 18.6265 3.35596 16.7699 3.35596Z" fill="#FF0000"/>
<path d="M12.2336 24.6204L24.5378 17.4938L12.2338 10.3672L12.2336 24.6204Z" fill="white"/>
</svg>
